<svg xmlns="http://www.w3.org/2000/svg" width="300" viewBox="0 0 2393 579" version="1.1"><path d="M 204.500 35.025 C 194.050 37.124, 182.575 39.552, 179 40.420 C 175.425 41.288, 167.775 42.924, 162 44.055 C 156.225 45.187, 146.100 47.193, 139.500 48.514 C 132.900 49.835, 124.575 51.598, 121 52.432 C 117.425 53.266, 105.500 55.795, 94.500 58.051 C 83.500 60.307, 69.100 63.248, 62.500 64.585 C 55.900 65.923, 49.600 67.199, 48.500 67.420 C 47.400 67.641, 45.825 68.060, 45 68.352 C 44.175 68.643, 40.906 69.392, 37.736 70.015 L 31.971 71.148 32.236 238.324 C 32.500 405.500, 32.500 405.500, 34.737 410.754 C 35.967 413.643, 38.867 419.043, 41.181 422.754 C 43.495 426.464, 47.276 431.989, 49.584 435.030 C 51.891 438.072, 57.020 444.031, 60.982 448.274 C 64.944 452.516, 72.306 459.524, 77.343 463.846 C 82.379 468.168, 92.125 475.750, 99 480.695 C 105.875 485.640, 117.125 493.067, 124 497.200 C 130.875 501.333, 141.548 507.462, 147.717 510.819 C 153.887 514.177, 164.912 519.680, 172.217 523.049 C 179.523 526.418, 188.875 530.529, 193 532.186 C 197.125 533.843, 205 536.826, 210.500 538.815 C 218.321 541.644, 222.025 542.439, 227.500 542.466 C 233.433 542.495, 236.557 541.752, 248 537.590 C 255.425 534.890, 268.829 529.372, 277.787 525.329 C 286.744 521.286, 299.923 514.820, 307.073 510.960 C 314.223 507.101, 325.842 500.398, 332.893 496.066 C 339.944 491.733, 349.715 485.355, 354.607 481.892 C 359.498 478.430, 367.817 472.110, 373.093 467.848 C 378.369 463.587, 387.420 455.159, 393.206 449.121 C 398.993 443.082, 406.693 433.701, 410.318 428.273 C 413.942 422.846, 418.376 414.601, 420.171 409.953 C 423.435 401.500, 423.435 401.500, 423.737 236.392 L 424.040 71.284 416.770 69.729 C 412.772 68.874, 395.325 65.242, 378 61.658 C 360.675 58.074, 342.450 54.226, 337.500 53.108 C 332.550 51.990, 320.175 49.457, 310 47.479 C 299.825 45.500, 286.550 42.744, 280.500 41.354 C 274.450 39.964, 260.500 37.066, 249.500 34.914 C 238.500 32.762, 228.150 31.048, 226.500 31.104 C 224.850 31.161, 214.950 32.925, 204.500 35.025 M 202 41.526 C 190.725 43.901, 174.975 47.265, 167 49.001 C 159.025 50.737, 145.975 53.454, 138 55.037 C 130.025 56.621, 118.325 59.063, 112 60.465 C 105.675 61.867, 92.850 64.565, 83.500 66.461 C 74.150 68.358, 61.100 71.087, 54.500 72.527 C 47.900 73.967, 41.487 75.390, 40.250 75.689 C 38 76.233, 38 76.233, 38.008 235.367 C 38.013 341.384, 38.365 396.653, 39.062 400.952 C 39.707 404.926, 41.699 410.494, 44.251 415.452 C 46.529 419.878, 49.534 425.075, 50.929 427 C 52.324 428.925, 55.723 433.200, 58.483 436.500 C 61.242 439.800, 67.100 445.928, 71.500 450.118 C 75.900 454.309, 82.425 460.173, 86 463.150 C 89.575 466.128, 95.650 470.861, 99.500 473.668 C 103.350 476.475, 111.675 482.120, 118 486.212 C 124.325 490.304, 136.050 497.329, 144.056 501.823 C 152.062 506.318, 166.687 513.760, 176.556 518.362 C 186.425 522.964, 200.899 529.040, 208.720 531.864 C 218.008 535.219, 224.522 537, 227.505 537 C 230.534 537, 237.091 535.172, 246.989 531.569 C 255.193 528.582, 263.615 525.362, 265.703 524.413 C 267.791 523.465, 275.874 519.654, 283.665 515.944 C 291.455 512.235, 304.055 505.722, 311.665 501.470 C 319.274 497.218, 331.125 490.061, 338 485.565 C 344.875 481.069, 354.775 474.209, 360 470.322 C 365.225 466.434, 373.847 459.259, 379.160 454.377 C 384.473 449.494, 390.781 443.250, 393.177 440.500 C 395.574 437.750, 399.211 433.404, 401.260 430.841 C 403.308 428.279, 406.786 422.843, 408.987 418.761 C 411.189 414.680, 413.881 408.676, 414.970 405.420 C 416.911 399.618, 416.951 396.272, 416.975 237.867 C 417 76.233, 417 76.233, 414.750 75.689 C 413.512 75.390, 407.100 73.947, 400.500 72.483 C 393.900 71.019, 381.975 68.554, 374 67.005 C 366.025 65.456, 350.275 62.151, 339 59.660 C 327.725 57.169, 314.900 54.440, 310.500 53.595 C 306.100 52.750, 296.200 50.722, 288.500 49.088 C 280.800 47.454, 264.600 44.067, 252.500 41.561 C 240.400 39.055, 228.700 37.050, 226.500 37.105 C 224.300 37.161, 213.275 39.150, 202 41.526 M 220.500 49.612 C 217.200 50.385, 209.100 52.122, 202.500 53.471 C 195.900 54.819, 183.075 57.531, 174 59.496 C 164.925 61.462, 150.975 64.378, 143 65.976 C 135.025 67.575, 123.100 70.069, 116.500 71.519 C 109.900 72.969, 99.325 75.184, 93 76.441 C 86.675 77.698, 74.413 80.218, 65.750 82.040 L 50 85.353 50.012 242.427 C 50.024 399.500, 50.024 399.500, 53.351 407.119 C 55.181 411.310, 59.189 418.301, 62.257 422.656 C 65.326 427.010, 72.938 435.515, 79.173 441.555 C 85.407 447.594, 94.107 455.267, 98.504 458.606 C 102.902 461.944, 109.425 466.700, 113 469.174 C 116.575 471.648, 124.225 476.591, 130 480.157 C 135.775 483.723, 145.900 489.612, 152.500 493.242 C 159.100 496.872, 170.350 502.608, 177.500 505.988 C 184.650 509.368, 194.100 513.628, 198.500 515.454 C 202.900 517.281, 210.473 520.176, 215.330 521.888 C 220.186 523.599, 225.706 525, 227.596 525 C 229.486 525, 236.669 522.957, 243.558 520.460 C 250.447 517.962, 263.684 512.400, 272.973 508.099 C 282.262 503.797, 295.856 496.972, 303.181 492.930 C 310.506 488.889, 321.450 482.486, 327.500 478.701 C 333.550 474.916, 342.775 468.745, 348 464.987 C 353.225 461.229, 361.551 454.632, 366.502 450.327 C 371.453 446.022, 378.930 438.833, 383.118 434.351 C 387.305 429.869, 392.820 422.851, 395.373 418.755 C 397.926 414.660, 401.136 408.548, 402.507 405.174 C 405 399.040, 405 399.040, 405 242.158 L 405 85.276 399.250 84.076 C 396.087 83.416, 383.825 80.901, 372 78.486 C 360.175 76.071, 345.100 72.916, 338.500 71.476 C 331.900 70.035, 319.975 67.554, 312 65.963 C 304.025 64.372, 290.075 61.462, 281 59.496 C 271.925 57.531, 259.100 54.823, 252.500 53.479 C 245.900 52.135, 237.575 50.369, 234 49.553 C 230.425 48.738, 227.275 48.101, 227 48.138 C 226.725 48.175, 223.800 48.838, 220.500 49.612 M 226.667 54.667 C 226.300 55.033, 226 104.083, 226 163.667 L 226 272 140.500 272 L 55 272 55.058 332.750 C 55.109 386.980, 55.301 394.211, 56.844 400.123 C 57.795 403.766, 60.806 410.516, 63.536 415.123 C 67.212 421.327, 71.772 426.758, 81.112 436.057 C 88.048 442.964, 97.198 451.289, 101.444 454.557 C 105.690 457.826, 114.472 464.100, 120.960 468.500 C 127.447 472.900, 136.073 478.566, 140.128 481.091 C 144.182 483.615, 151.550 487.965, 156.500 490.755 C 161.450 493.546, 172.559 499.225, 181.186 503.375 C 189.814 507.525, 201.064 512.361, 206.186 514.122 C 211.309 515.883, 215.950 517.660, 216.500 518.072 C 217.050 518.484, 219.113 519.122, 221.085 519.491 L 224.671 520.161 225.335 464.416 C 225.701 433.756, 226 383.840, 226 353.492 C 226 323.144, 226.294 292.843, 226.654 286.157 L 227.307 274 313.654 274 L 400 274 400 182 C 400 131.400, 399.833 90, 399.629 90 C 399.424 90, 386.779 87.523, 371.527 84.497 C 356.276 81.470, 343.411 78.754, 342.938 78.462 C 342.465 78.169, 333.398 76.172, 322.789 74.022 C 312.180 71.873, 292.700 67.873, 279.500 65.134 C 266.300 62.394, 249.432 58.769, 242.015 57.077 C 234.598 55.384, 228.261 54, 227.932 54 C 227.603 54, 227.033 54.300, 226.667 54.667 M 134.999 91.503 C 134.363 93.430, 134.153 96.421, 134.533 98.150 C 134.912 99.878, 136.523 104.039, 138.111 107.396 C 139.699 110.753, 140.999 115.087, 140.999 117.027 C 141 118.968, 140.333 121.508, 139.517 122.673 C 138.701 123.837, 135.635 126.144, 132.703 127.799 C 129.771 129.453, 124.866 133.097, 121.803 135.897 C 118.740 138.696, 115.507 142.520, 114.617 144.394 C 113.728 146.269, 113 149.856, 113 152.366 C 113 156.012, 113.604 157.618, 116 160.347 C 118.073 162.709, 119 164.813, 119 167.160 C 119 169.027, 119.701 171.555, 120.557 172.777 C 122.003 174.842, 122.884 175, 132.985 175 C 141.535 175, 144.193 174.664, 145.429 173.429 C 146.293 172.564, 147 170.615, 147 169.096 C 147 166.366, 146.941 166.340, 141.570 166.786 C 137.161 167.151, 135.578 166.835, 133.147 165.104 C 131.477 163.915, 129.863 161.654, 129.498 159.990 C 129.137 158.349, 129.353 155.460, 129.977 153.569 C 130.601 151.679, 132.888 148.527, 135.059 146.566 C 137.230 144.605, 139.405 143, 139.893 143 C 140.381 143, 143.562 140.952, 146.962 138.449 C 151.189 135.338, 153.746 132.571, 155.050 129.699 C 156.098 127.390, 156.966 124.344, 156.978 122.932 C 156.990 121.519, 156.337 118.144, 155.526 115.432 C 154.479 111.928, 152.013 108.184, 147.006 102.500 C 143.131 98.100, 139.428 93.037, 138.779 91.250 C 138.130 89.463, 137.274 88, 136.877 88 C 136.480 88, 135.635 89.577, 134.999 91.503 M 302.946 111.779 L 292.391 129.500 271.258 129.770 L 250.124 130.039 260.562 147.628 C 266.303 157.302, 271 165.423, 271 165.675 C 271 165.927, 268.075 171.090, 264.500 177.150 C 260.925 183.209, 258 188.311, 258 188.487 C 258 188.664, 256.425 191.594, 254.500 195 C 252.575 198.406, 251 201.436, 251 201.733 C 251 202.030, 260.009 202.057, 271.021 201.792 C 284.731 201.462, 291.452 201.655, 292.342 202.405 C 293.057 203.007, 296.295 208, 299.539 213.500 C 302.782 219, 307.300 226.755, 309.579 230.733 L 313.723 237.965 323.956 220.526 C 329.584 210.935, 334.834 202.553, 335.621 201.900 C 336.686 201.016, 342.165 200.895, 357.026 201.427 C 368.012 201.820, 377 201.903, 377 201.610 C 377 201.318, 372.685 193.749, 367.410 184.789 C 362.136 175.830, 357.378 167.965, 356.838 167.311 C 356.151 166.479, 359.049 160.772, 366.488 148.311 L 377.120 130.500 356.120 130.230 L 335.121 129.961 331.405 123.843 C 329.361 120.479, 326.746 116.047, 325.594 113.995 C 324.442 111.943, 322.024 107.617, 320.221 104.382 C 318.417 101.147, 316.167 97.501, 315.221 96.279 C 313.517 94.080, 313.395 94.234, 302.946 111.779 M 130.115 106.010 C 129.454 108.215, 127.343 111.590, 125.424 113.510 C 123.323 115.610, 120.951 117, 119.467 117 C 117.608 117, 117 116.469, 117 114.845 C 117 112.716, 116.974 112.713, 114.847 114.595 C 113.663 115.643, 110.963 119.157, 108.847 122.405 C 105.158 128.068, 105 128.655, 105 136.717 C 105 143.676, 105.444 146.062, 107.578 150.573 C 108.996 153.570, 110.572 155.765, 111.080 155.450 C 111.639 155.105, 111.608 154.137, 111.003 153.005 C 110.451 151.975, 110 148.793, 110 145.934 C 110 142.543, 110.671 139.652, 111.930 137.618 C 112.991 135.903, 116.478 132.958, 119.680 131.073 C 122.881 129.189, 127.409 125.836, 129.742 123.623 C 132.473 121.033, 134.213 118.381, 134.625 116.183 C 134.978 114.304, 134.724 110.345, 134.061 107.384 C 133.399 104.423, 132.510 102, 132.087 102 C 131.663 102, 130.776 103.804, 130.115 106.010 M 308.593 119.718 C 306.067 123.964, 304 128.014, 304 128.718 C 304 129.670, 306.431 130, 313.441 130 C 318.634 130, 323.136 129.590, 323.446 129.088 C 323.756 128.586, 321.870 124.548, 319.255 120.113 C 316.640 115.678, 314.205 112.038, 313.843 112.025 C 313.482 112.011, 311.120 115.473, 308.593 119.718 M 156.623 129.250 C 155.658 132.688, 154.253 136.914, 153.502 138.642 C 152.623 140.663, 149.807 143.289, 145.609 146.004 C 142.019 148.326, 138.389 151.284, 137.541 152.577 C 136.694 153.871, 136 156.263, 136 157.893 C 136 159.523, 136.707 161.564, 137.571 162.429 C 138.436 163.293, 140.618 164, 142.421 164 C 144.439 164, 147.213 162.904, 149.636 161.149 C 151.801 159.581, 154.861 156.768, 156.437 154.899 C 158.014 153.029, 159.910 150.052, 160.652 148.282 C 161.397 146.504, 162 141.537, 162 137.181 C 162 132.846, 161.506 127.881, 160.902 126.149 C 160.298 124.417, 159.484 123, 159.091 123 C 158.699 123, 157.589 125.813, 156.623 129.250 M 269.211 145.006 C 271.020 148.309, 273.437 152.205, 274.582 153.664 C 276.663 156.316, 276.663 156.316, 280.515 149.908 C 282.634 146.384, 285.011 142.488, 285.798 141.250 C 287.230 139, 287.230 139, 276.576 139 L 265.922 139 269.211 145.006 M 289.557 152.096 C 284.662 160.424, 282.085 165.793, 282.480 166.846 C 282.822 167.756, 286.341 173.989, 290.301 180.699 L 297.500 192.898 313.650 192.949 L 329.800 193 337.926 179.381 L 346.052 165.761 340.397 156.131 C 337.286 150.834, 333.668 144.813, 332.356 142.750 C 329.972 139, 329.972 139, 313.613 139 L 297.255 139 289.557 152.096 M 341 139.592 C 341 139.917, 343.133 143.742, 345.739 148.092 C 348.346 152.441, 350.732 156, 351.040 156 C 351.349 156, 353.717 152.502, 356.301 148.227 C 358.885 143.952, 361 140.127, 361 139.727 C 361 139.327, 356.500 139, 351 139 C 345.500 139, 341 139.266, 341 139.592 M 271.601 182.666 C 269.090 186.975, 267.028 191.063, 267.018 191.750 C 267.005 192.668, 269.657 193, 277 193 C 282.500 193, 287 192.847, 287 192.660 C 287 192.472, 284.745 188.568, 281.989 183.982 C 279.234 179.397, 276.796 175.462, 276.572 175.239 C 276.348 175.015, 274.111 178.357, 271.601 182.666 M 116.491 177.014 C 116.147 177.571, 116.182 181.660, 116.569 186.099 C 117.125 192.472, 117.771 194.762, 119.637 196.980 C 120.936 198.525, 122 200.249, 122 200.811 C 122 201.373, 123.091 202.658, 124.423 203.667 C 126.623 205.331, 126.899 206.424, 127.408 215.500 C 127.717 221, 128.256 229.125, 128.607 233.556 C 128.957 237.987, 129.830 242.414, 130.546 243.394 C 131.263 244.374, 132.659 245.020, 133.649 244.829 C 134.640 244.638, 135.954 243.471, 136.570 242.235 C 137.187 240.999, 138.280 231.898, 138.999 222.012 C 140.145 206.275, 140.531 203.966, 142.103 203.467 C 143.090 203.154, 144.194 201.908, 144.555 200.699 C 144.917 199.489, 146.103 197.794, 147.191 196.932 C 148.669 195.760, 149.432 193.306, 150.209 187.225 C 150.780 182.750, 150.981 178.393, 150.655 177.544 C 150.154 176.239, 147.517 176, 133.590 176 C 123.538 176, 116.874 176.395, 116.491 177.014 M 345.620 183.795 C 343.079 188.129, 341 191.974, 341 192.338 C 341 192.702, 345.500 193, 351 193 C 356.500 193, 361 192.588, 361 192.085 C 361 191.582, 359.069 187.901, 356.709 183.905 C 354.349 179.909, 351.928 176.476, 351.329 176.276 C 350.731 176.077, 348.162 179.460, 345.620 183.795 M 303.469 202.049 C 303.282 202.352, 305.172 206.064, 307.668 210.299 C 310.437 214.998, 312.848 217.992, 313.853 217.978 C 314.856 217.965, 317.166 214.971, 319.760 210.322 C 322.103 206.122, 323.903 202.576, 323.760 202.441 C 323.617 202.306, 319.069 202.039, 313.654 201.848 C 308.238 201.657, 303.655 201.747, 303.469 202.049 M 271.196 338.264 C 270.274 339.375, 270.037 347.503, 270.236 371.113 L 270.500 402.486 282 402.590 C 291.062 402.672, 294.742 403.147, 299.358 404.830 C 302.579 406.005, 307.702 408.313, 310.741 409.959 C 313.781 411.606, 316.657 412.712, 317.134 412.417 C 317.610 412.123, 318 399.345, 318 384.022 L 318 356.161 312.908 350.590 C 309.345 346.691, 305.544 343.895, 300.249 341.279 C 293.299 337.844, 291.856 337.508, 282.551 337.164 C 274.503 336.866, 272.168 337.092, 271.196 338.264 M 342.666 339.074 C 339.458 340.177, 335.155 342.139, 333.105 343.434 C 331.054 344.728, 327.267 348.134, 324.688 351.002 L 320 356.216 320 384.049 C 320 400.852, 320.382 412.118, 320.965 412.478 C 321.496 412.806, 323.699 411.904, 325.861 410.473 C 328.023 409.042, 333.102 406.689, 337.146 405.243 C 343.371 403.018, 346.227 402.606, 355.750 402.557 L 367 402.500 367 370.357 C 367 341.969, 366.815 338.143, 365.418 337.607 C 364.548 337.273, 360.386 337.015, 356.168 337.033 C 351.174 337.055, 346.466 337.767, 342.666 339.074 M 136.140 345.008 C 131.542 346.601, 125.653 349.018, 123.052 350.378 C 120.452 351.737, 114.989 353.967, 110.912 355.333 C 106.835 356.699, 100.135 359.053, 96.022 360.565 C 91.909 362.076, 87.972 363.886, 87.272 364.585 C 86.362 365.495, 86 369.895, 86 380.036 C 86 392.554, 86.185 394.143, 87.582 393.607 C 88.452 393.273, 89.378 393, 89.641 393 C 89.903 393, 89.840 392.550, 89.500 392 C 89.160 391.450, 89.373 391, 89.972 391 C 90.572 391, 91.322 391.675, 91.638 392.500 C 91.955 393.325, 92.841 394, 93.607 394 C 94.717 394, 95 391.663, 95 382.500 C 95 376.175, 95.144 371, 95.321 371 C 95.497 371, 100.560 372.847, 106.571 375.104 C 112.582 377.361, 119.525 380.125, 122 381.245 C 124.475 382.366, 130.550 384.792, 135.500 386.636 C 140.450 388.481, 145.344 389.992, 146.377 389.995 C 147.409 389.998, 153.259 388.125, 159.377 385.833 C 165.494 383.541, 170.650 381.291, 170.833 380.833 C 171.017 380.375, 171.637 380, 172.211 380 C 172.786 380, 179.995 377.516, 188.231 374.480 C 196.467 371.444, 204.060 368.503, 205.103 367.945 C 206.146 367.386, 207 366.545, 207 366.075 C 207 365.605, 204.863 364.210, 202.250 362.974 C 199.637 361.739, 193.900 359.476, 189.500 357.944 C 185.100 356.413, 178.800 354.183, 175.500 352.988 C 172.200 351.794, 168.951 350.363, 168.279 349.810 C 167.608 349.256, 162.662 347.273, 157.289 345.402 C 151.916 343.531, 146.841 342.025, 146.010 342.055 C 145.180 342.085, 140.738 343.414, 136.140 345.008 M 261.250 342.662 C 260.282 343.053, 260 351.311, 260 379.208 C 260 415.250, 260 415.250, 263.233 414.603 C 265.011 414.248, 270.560 413.500, 275.565 412.942 C 281.757 412.252, 288.140 412.257, 295.547 412.959 C 301.532 413.526, 308.020 414.288, 309.965 414.652 C 313.104 415.240, 313.354 415.137, 312.195 413.738 C 311.477 412.872, 307.427 410.889, 303.195 409.331 C 296.134 406.733, 294.367 406.500, 281.750 406.500 L 267.999 406.500 268 374.250 C 268 342, 268 342, 265.250 342.079 C 263.738 342.122, 261.938 342.385, 261.250 342.662 M 369.764 374.232 L 369.500 406.465 358 406.183 C 349.956 405.986, 344.745 406.370, 340.661 407.461 C 337.450 408.319, 332.612 409.972, 329.911 411.134 C 327.210 412.296, 325 413.697, 325 414.248 C 325 414.826, 326.258 414.998, 327.972 414.656 C 329.606 414.329, 335.871 413.569, 341.894 412.967 C 349.600 412.196, 355.460 412.179, 361.672 412.908 C 366.527 413.477, 372.188 414.240, 374.250 414.602 L 378 415.262 378 379.831 C 378 353.607, 377.688 344.088, 376.800 343.200 C 376.140 342.540, 374.346 342, 372.814 342 C 370.028 342, 370.028 342, 369.764 374.232 M 114.667 381.667 C 114.300 382.033, 114 386.563, 114 391.732 C 114 396.902, 114.486 402.039, 115.080 403.149 C 115.673 404.258, 118.486 406.249, 121.330 407.573 C 126.253 409.865, 127.457 409.980, 146.500 409.968 C 164.456 409.957, 166.958 409.748, 170.982 407.923 C 173.447 406.805, 176.260 405.170, 177.232 404.290 C 178.716 402.947, 179 400.946, 179 391.845 C 179 382.182, 178.809 381, 177.250 381.002 C 176.287 381.003, 169.464 383.253, 162.088 386.002 C 154.711 388.751, 147.732 391, 146.579 391 C 145.427 391, 140.887 389.708, 136.492 388.130 C 132.096 386.551, 126.121 384.301, 123.213 383.130 C 120.305 381.958, 117.343 381, 116.630 381 C 115.917 381, 115.033 381.300, 114.667 381.667" stroke="none" fill="#000" fill-rule="evenodd"/><path d="M 203 10.515 C 191.725 12.855, 178 15.761, 172.500 16.973 C 167 18.185, 147.425 22.271, 129 26.053 C 110.575 29.835, 87.175 34.682, 77 36.823 C 66.825 38.964, 53.550 41.702, 47.500 42.906 C 41.450 44.110, 29.975 46.572, 22 48.378 L 7.500 51.662 7.219 224.581 C 7.022 346.173, 7.263 399.429, 8.031 404 C 8.632 407.575, 10.455 414.493, 12.083 419.372 C 13.712 424.252, 16.757 430.777, 18.850 433.872 C 20.944 436.968, 24.372 442.200, 26.468 445.500 C 28.565 448.800, 32.354 453.723, 34.890 456.439 C 37.425 459.156, 43.100 465.037, 47.500 469.508 C 51.900 473.979, 59.550 480.991, 64.500 485.088 C 69.450 489.186, 76.875 495.017, 81 498.047 C 85.125 501.076, 91.875 505.762, 96 508.459 C 100.125 511.156, 105.300 514.577, 107.500 516.061 C 109.700 517.545, 114.200 520.250, 117.500 522.073 C 120.800 523.896, 126.650 527.112, 130.500 529.219 C 134.350 531.327, 143.125 535.752, 150 539.052 C 156.875 542.353, 164.139 545.943, 166.143 547.030 C 168.146 548.118, 177.973 552.163, 187.980 556.020 C 197.987 559.876, 209.839 563.981, 214.318 565.142 C 220.608 566.773, 224.305 567.138, 230.561 566.748 C 236.486 566.378, 241.730 565.169, 250.081 562.246 C 256.361 560.048, 266.787 556.195, 273.248 553.684 C 279.710 551.172, 287.135 547.990, 289.748 546.612 C 292.362 545.235, 299.675 541.624, 306 538.590 C 312.325 535.555, 321.100 531.114, 325.500 528.721 C 329.900 526.329, 338.225 521.520, 344 518.036 C 349.775 514.552, 358.775 508.738, 364 505.115 C 369.225 501.493, 376.473 496.273, 380.106 493.515 C 383.739 490.757, 389.820 485.979, 393.618 482.897 C 397.417 479.815, 405.584 471.996, 411.768 465.521 C 417.951 459.046, 425.412 450.317, 428.347 446.124 C 431.282 441.931, 435.541 435.111, 437.812 430.969 C 440.083 426.827, 443.102 419.881, 444.521 415.532 C 445.940 411.184, 447.515 404.448, 448.020 400.563 C 448.545 396.522, 448.951 320.460, 448.969 222.769 C 449 52.038, 449 52.038, 446.750 51.540 C 445.512 51.266, 440.450 50.123, 435.500 49 C 430.550 47.877, 425.375 46.685, 424 46.351 C 422.625 46.018, 407.775 42.924, 391 39.476 C 374.225 36.028, 356 32.262, 350.500 31.106 C 345 29.951, 335.100 27.897, 328.500 26.540 C 321.900 25.184, 310.875 22.882, 304 21.424 C 297.125 19.967, 287.450 17.917, 282.500 16.870 C 277.550 15.823, 263.375 12.951, 251 10.488 C 238.625 8.026, 227.375 6.067, 226 6.136 C 224.625 6.205, 214.275 8.176, 203 10.515 M 204.500 35.025 C 194.050 37.124, 182.575 39.552, 179 40.420 C 175.425 41.288, 167.775 42.924, 162 44.055 C 156.225 45.187, 146.100 47.193, 139.500 48.514 C 132.900 49.835, 124.575 51.598, 121 52.432 C 117.425 53.266, 105.500 55.795, 94.500 58.051 C 83.500 60.307, 69.100 63.248, 62.500 64.585 C 55.900 65.923, 49.600 67.199, 48.500 67.420 C 47.400 67.641, 45.825 68.060, 45 68.352 C 44.175 68.643, 40.906 69.392, 37.736 70.015 L 31.971 71.148 32.236 238.324 C 32.500 405.500, 32.500 405.500, 34.737 410.754 C 35.967 413.643, 38.867 419.043, 41.181 422.754 C 43.495 426.464, 47.276 431.989, 49.584 435.030 C 51.891 438.072, 57.020 444.031, 60.982 448.274 C 64.944 452.516, 72.306 459.524, 77.343 463.846 C 82.379 468.168, 92.125 475.750, 99 480.695 C 105.875 485.640, 117.125 493.067, 124 497.200 C 130.875 501.333, 141.548 507.462, 147.717 510.819 C 153.887 514.177, 164.912 519.680, 172.217 523.049 C 179.523 526.418, 188.875 530.529, 193 532.186 C 197.125 533.843, 205 536.826, 210.500 538.815 C 218.321 541.644, 222.025 542.439, 227.500 542.466 C 233.433 542.495, 236.557 541.752, 248 537.590 C 255.425 534.890, 268.829 529.372, 277.787 525.329 C 286.744 521.286, 299.923 514.820, 307.073 510.960 C 314.223 507.101, 325.842 500.398, 332.893 496.066 C 339.944 491.733, 349.715 485.355, 354.607 481.892 C 359.498 478.430, 367.817 472.110, 373.093 467.848 C 378.369 463.587, 387.420 455.159, 393.206 449.121 C 398.993 443.082, 406.693 433.701, 410.318 428.273 C 413.942 422.846, 418.376 414.601, 420.171 409.953 C 423.435 401.500, 423.435 401.500, 423.737 236.392 L 424.040 71.284 416.770 69.729 C 412.772 68.874, 395.325 65.242, 378 61.658 C 360.675 58.074, 342.450 54.226, 337.500 53.108 C 332.550 51.990, 320.175 49.457, 310 47.479 C 299.825 45.500, 286.550 42.744, 280.500 41.354 C 274.450 39.964, 260.500 37.066, 249.500 34.914 C 238.500 32.762, 228.150 31.048, 226.500 31.104 C 224.850 31.161, 214.950 32.925, 204.500 35.025 M 202 41.526 C 190.725 43.901, 174.975 47.265, 167 49.001 C 159.025 50.737, 145.975 53.454, 138 55.037 C 130.025 56.621, 118.325 59.063, 112 60.465 C 105.675 61.867, 92.850 64.565, 83.500 66.461 C 74.150 68.358, 61.100 71.087, 54.500 72.527 C 47.900 73.967, 41.487 75.390, 40.250 75.689 C 38 76.233, 38 76.233, 38.008 235.367 C 38.013 341.384, 38.365 396.653, 39.062 400.952 C 39.707 404.926, 41.699 410.494, 44.251 415.452 C 46.529 419.878, 49.534 425.075, 50.929 427 C 52.324 428.925, 55.723 433.200, 58.483 436.500 C 61.242 439.800, 67.100 445.928, 71.500 450.118 C 75.900 454.309, 82.425 460.173, 86 463.150 C 89.575 466.128, 95.650 470.861, 99.500 473.668 C 103.350 476.475, 111.675 482.120, 118 486.212 C 124.325 490.304, 136.050 497.329, 144.056 501.823 C 152.062 506.318, 166.687 513.760, 176.556 518.362 C 186.425 522.964, 200.899 529.040, 208.720 531.864 C 218.008 535.219, 224.522 537, 227.505 537 C 230.534 537, 237.091 535.172, 246.989 531.569 C 255.193 528.582, 263.615 525.362, 265.703 524.413 C 267.791 523.465, 275.874 519.654, 283.665 515.944 C 291.455 512.235, 304.055 505.722, 311.665 501.470 C 319.274 497.218, 331.125 490.061, 338 485.565 C 344.875 481.069, 354.775 474.209, 360 470.322 C 365.225 466.434, 373.847 459.259, 379.160 454.377 C 384.473 449.494, 390.781 443.250, 393.177 440.500 C 395.574 437.750, 399.211 433.404, 401.260 430.841 C 403.308 428.279, 406.786 422.843, 408.987 418.761 C 411.189 414.680, 413.881 408.676, 414.970 405.420 C 416.911 399.618, 416.951 396.272, 416.975 237.867 C 417 76.233, 417 76.233, 414.750 75.689 C 413.512 75.390, 407.100 73.947, 400.500 72.483 C 393.900 71.019, 381.975 68.554, 374 67.005 C 366.025 65.456, 350.275 62.151, 339 59.660 C 327.725 57.169, 314.900 54.440, 310.500 53.595 C 306.100 52.750, 296.200 50.722, 288.500 49.088 C 280.800 47.454, 264.600 44.067, 252.500 41.561 C 240.400 39.055, 228.700 37.050, 226.500 37.105 C 224.300 37.161, 213.275 39.150, 202 41.526 M 220.500 49.612 C 217.200 50.385, 209.100 52.122, 202.500 53.471 C 195.900 54.819, 183.075 57.531, 174 59.496 C 164.925 61.462, 150.975 64.378, 143 65.976 C 135.025 67.575, 123.100 70.069, 116.500 71.519 C 109.900 72.969, 99.325 75.184, 93 76.441 C 86.675 77.698, 74.413 80.218, 65.750 82.040 L 50 85.353 50.012 242.427 C 50.024 399.500, 50.024 399.500, 53.351 407.119 C 55.181 411.310, 59.189 418.301, 62.257 422.656 C 65.326 427.010, 72.938 435.515, 79.173 441.555 C 85.407 447.594, 94.107 455.267, 98.504 458.606 C 102.902 461.944, 109.425 466.700, 113 469.174 C 116.575 471.648, 124.225 476.591, 130 480.157 C 135.775 483.723, 145.900 489.612, 152.500 493.242 C 159.100 496.872, 170.350 502.608, 177.500 505.988 C 184.650 509.368, 194.100 513.628, 198.500 515.454 C 202.900 517.281, 210.473 520.176, 215.330 521.888 C 220.186 523.599, 225.706 525, 227.596 525 C 229.486 525, 236.669 522.957, 243.558 520.460 C 250.447 517.962, 263.684 512.400, 272.973 508.099 C 282.262 503.797, 295.856 496.972, 303.181 492.930 C 310.506 488.889, 321.450 482.486, 327.500 478.701 C 333.550 474.916, 342.775 468.745, 348 464.987 C 353.225 461.229, 361.551 454.632, 366.502 450.327 C 371.453 446.022, 378.930 438.833, 383.118 434.351 C 387.305 429.869, 392.820 422.851, 395.373 418.755 C 397.926 414.660, 401.136 408.548, 402.507 405.174 C 405 399.040, 405 399.040, 405 242.158 L 405 85.276 399.250 84.076 C 396.087 83.416, 383.825 80.901, 372 78.486 C 360.175 76.071, 345.100 72.916, 338.500 71.476 C 331.900 70.035, 319.975 67.554, 312 65.963 C 304.025 64.372, 290.075 61.462, 281 59.496 C 271.925 57.531, 259.100 54.823, 252.500 53.479 C 245.900 52.135, 237.575 50.369, 234 49.553 C 230.425 48.738, 227.275 48.101, 227 48.138 C 226.725 48.175, 223.800 48.838, 220.500 49.612 M 226.667 54.667 C 226.300 55.033, 226 104.083, 226 163.667 L 226 272 140.500 272 L 55 272 55.058 332.750 C 55.109 386.980, 55.301 394.211, 56.844 400.123 C 57.795 403.766, 60.806 410.516, 63.536 415.123 C 67.212 421.327, 71.772 426.758, 81.112 436.057 C 88.048 442.964, 97.198 451.289, 101.444 454.557 C 105.690 457.826, 114.472 464.100, 120.960 468.500 C 127.447 472.900, 136.073 478.566, 140.128 481.091 C 144.182 483.615, 151.550 487.965, 156.500 490.755 C 161.450 493.546, 172.559 499.225, 181.186 503.375 C 189.814 507.525, 201.064 512.361, 206.186 514.122 C 211.309 515.883, 215.950 517.660, 216.500 518.072 C 217.050 518.484, 219.113 519.122, 221.085 519.491 L 224.671 520.161 225.335 464.416 C 225.701 433.756, 226 383.840, 226 353.492 C 226 323.144, 226.294 292.843, 226.654 286.157 L 227.307 274 313.654 274 L 400 274 400 182 C 400 131.400, 399.833 90, 399.629 90 C 399.424 90, 386.779 87.523, 371.527 84.497 C 356.276 81.470, 343.411 78.754, 342.938 78.462 C 342.465 78.169, 333.398 76.172, 322.789 74.022 C 312.180 71.873, 292.700 67.873, 279.500 65.134 C 266.300 62.394, 249.432 58.769, 242.015 57.077 C 234.598 55.384, 228.261 54, 227.932 54 C 227.603 54, 227.033 54.300, 226.667 54.667 M 134.999 91.503 C 134.363 93.430, 134.153 96.421, 134.533 98.150 C 134.912 99.878, 136.523 104.039, 138.111 107.396 C 139.699 110.753, 140.999 115.087, 140.999 117.027 C 141 118.968, 140.333 121.508, 139.517 122.673 C 138.701 123.837, 135.635 126.144, 132.703 127.799 C 129.771 129.453, 124.866 133.097, 121.803 135.897 C 118.740 138.696, 115.507 142.520, 114.617 144.394 C 113.728 146.269, 113 149.856, 113 152.366 C 113 156.012, 113.604 157.618, 116 160.347 C 118.073 162.709, 119 164.813, 119 167.160 C 119 169.027, 119.701 171.555, 120.557 172.777 C 122.003 174.842, 122.884 175, 132.985 175 C 141.535 175, 144.193 174.664, 145.429 173.429 C 146.293 172.564, 147 170.615, 147 169.096 C 147 166.366, 146.941 166.340, 141.570 166.786 C 137.161 167.151, 135.578 166.835, 133.147 165.104 C 131.477 163.915, 129.863 161.654, 129.498 159.990 C 129.137 158.349, 129.353 155.460, 129.977 153.569 C 130.601 151.679, 132.888 148.527, 135.059 146.566 C 137.230 144.605, 139.405 143, 139.893 143 C 140.381 143, 143.562 140.952, 146.962 138.449 C 151.189 135.338, 153.746 132.571, 155.050 129.699 C 156.098 127.390, 156.966 124.344, 156.978 122.932 C 156.990 121.519, 156.337 118.144, 155.526 115.432 C 154.479 111.928, 152.013 108.184, 147.006 102.500 C 143.131 98.100, 139.428 93.037, 138.779 91.250 C 138.130 89.463, 137.274 88, 136.877 88 C 136.480 88, 135.635 89.577, 134.999 91.503 M 302.946 111.779 L 292.391 129.500 271.258 129.770 L 250.124 130.039 260.562 147.628 C 266.303 157.302, 271 165.423, 271 165.675 C 271 165.927, 268.075 171.090, 264.500 177.150 C 260.925 183.209, 258 188.311, 258 188.487 C 258 188.664, 256.425 191.594, 254.500 195 C 252.575 198.406, 251 201.436, 251 201.733 C 251 202.030, 260.009 202.057, 271.021 201.792 C 284.731 201.462, 291.452 201.655, 292.342 202.405 C 293.057 203.007, 296.295 208, 299.539 213.500 C 302.782 219, 307.300 226.755, 309.579 230.733 L 313.723 237.965 323.956 220.526 C 329.584 210.935, 334.834 202.553, 335.621 201.900 C 336.686 201.016, 342.165 200.895, 357.026 201.427 C 368.012 201.820, 377 201.903, 377 201.610 C 377 201.318, 372.685 193.749, 367.410 184.789 C 362.136 175.830, 357.378 167.965, 356.838 167.311 C 356.151 166.479, 359.049 160.772, 366.488 148.311 L 377.120 130.500 356.120 130.230 L 335.121 129.961 331.405 123.843 C 329.361 120.479, 326.746 116.047, 325.594 113.995 C 324.442 111.943, 322.024 107.617, 320.221 104.382 C 318.417 101.147, 316.167 97.501, 315.221 96.279 C 313.517 94.080, 313.395 94.234, 302.946 111.779 M 130.115 106.010 C 129.454 108.215, 127.343 111.590, 125.424 113.510 C 123.323 115.610, 120.951 117, 119.467 117 C 117.608 117, 117 116.469, 117 114.845 C 117 112.716, 116.974 112.713, 114.847 114.595 C 113.663 115.643, 110.963 119.157, 108.847 122.405 C 105.158 128.068, 105 128.655, 105 136.717 C 105 143.676, 105.444 146.062, 107.578 150.573 C 108.996 153.570, 110.572 155.765, 111.080 155.450 C 111.639 155.105, 111.608 154.137, 111.003 153.005 C 110.451 151.975, 110 148.793, 110 145.934 C 110 142.543, 110.671 139.652, 111.930 137.618 C 112.991 135.903, 116.478 132.958, 119.680 131.073 C 122.881 129.189, 127.409 125.836, 129.742 123.623 C 132.473 121.033, 134.213 118.381, 134.625 116.183 C 134.978 114.304, 134.724 110.345, 134.061 107.384 C 133.399 104.423, 132.510 102, 132.087 102 C 131.663 102, 130.776 103.804, 130.115 106.010 M 1313 103.905 C 1308.325 104.935, 1301.350 106.971, 1297.500 108.431 C 1293.650 109.891, 1287.449 112.894, 1283.719 115.105 C 1279.990 117.317, 1273.985 121.889, 1270.375 125.266 C 1266.765 128.642, 1261.820 134.197, 1259.385 137.609 C 1256.950 141.021, 1253.217 147.568, 1251.089 152.156 C 1248.961 156.745, 1246.484 163.501, 1245.584 167.169 C 1244.684 170.837, 1243.454 177.812, 1242.852 182.669 C 1242.250 187.526, 1242.032 196.110, 1242.368 201.744 C 1242.705 207.379, 1243.698 215.479, 1244.575 219.744 C 1245.453 224.010, 1247.441 230.780, 1248.994 234.790 C 1250.547 238.799, 1253.719 244.999, 1256.044 248.568 C 1258.369 252.136, 1263.638 258.200, 1267.752 262.042 C 1273.084 267.021, 1277.858 270.321, 1284.367 273.524 C 1289.390 275.997, 1297.100 278.975, 1301.500 280.143 C 1307.611 281.766, 1313.514 282.379, 1326.500 282.741 C 1339.683 283.109, 1345.478 282.845, 1352.312 281.564 C 1357.159 280.655, 1364.276 278.775, 1368.129 277.385 C 1371.982 275.996, 1377.917 273.250, 1381.317 271.283 C 1384.920 269.200, 1391.692 263.492, 1397.545 257.604 C 1406.585 248.510, 1408.164 246.350, 1413.329 236 C 1416.976 228.692, 1419.963 220.918, 1421.521 214.673 C 1422.870 209.269, 1424.268 199.996, 1424.628 194.067 C 1425.034 187.389, 1424.811 179.524, 1424.042 173.394 C 1423.359 167.952, 1421.723 160.125, 1420.406 156 C 1419.088 151.875, 1416.146 145.125, 1413.866 141 C 1411.066 135.933, 1406.910 130.707, 1401.055 124.890 C 1393.919 117.800, 1390.722 115.459, 1382.945 111.630 C 1377.750 109.073, 1369.900 106.022, 1365.500 104.851 C 1359.102 103.148, 1353.896 102.653, 1339.500 102.378 C 1324.688 102.095, 1319.995 102.365, 1313 103.905 M 2084.148 109.454 C 2082.407 113.603, 2074.404 131.961, 2066.365 150.249 C 2058.326 168.537, 2046.798 194.300, 2040.746 207.500 C 2034.695 220.700, 2026.624 237.800, 2022.811 245.500 C 2018.998 253.200, 2014.594 260.803, 2013.025 262.395 C 2011.358 264.086, 2007.329 266.244, 2003.336 267.585 C 1996.500 269.880, 1996.500 269.880, 1996.200 274.315 L 1995.901 278.750 2026.500 278.750 L 2057.099 278.750 2056.800 274.221 C 2056.500 269.692, 2056.500 269.692, 2048.582 267.829 C 2044.227 266.804, 2040.064 265.468, 2039.332 264.860 C 2038.599 264.252, 2038 262.664, 2038 261.330 C 2038 259.997, 2040.984 251.559, 2044.632 242.581 L 2051.263 226.256 2066.956 225.804 C 2075.587 225.555, 2088.927 225.552, 2096.600 225.797 L 2110.551 226.242 2117.391 243.093 C 2122.139 254.789, 2124.047 260.678, 2123.628 262.345 C 2123.289 263.695, 2121.816 265.239, 2120.263 265.871 C 2118.743 266.489, 2114.575 267.577, 2111 268.288 C 2104.500 269.581, 2104.500 269.581, 2104.199 274.202 L 2103.898 278.823 2147.449 278.778 L 2191 278.733 2191 274.088 C 2191 269.443, 2191 269.443, 2184.043 267.651 C 2180.217 266.665, 2175.627 264.876, 2173.844 263.674 C 2171.831 262.317, 2168.980 258.460, 2166.322 253.495 C 2163.968 249.098, 2157.475 235.600, 2151.892 223.500 C 2146.310 211.400, 2136.112 188.900, 2129.229 173.500 C 2122.347 158.100, 2112.561 135.825, 2107.483 124 C 2098.249 102.500, 2098.249 102.500, 2092.782 102.205 C 2087.315 101.910, 2087.315 101.910, 2084.148 109.454 M 542.199 110.748 C 542.500 115.296, 542.500 115.296, 552.962 117.638 C 559.793 119.166, 564.131 120.686, 565.462 122.016 C 567.449 124.002, 567.515 125.448, 568.101 179.776 C 568.594 225.511, 568.985 236.694, 570.280 242.163 C 571.149 245.828, 573.069 251.383, 574.547 254.507 C 576.043 257.670, 579.623 262.540, 582.623 265.492 C 586.075 268.889, 590.976 272.239, 596.256 274.810 C 600.790 277.019, 607.650 279.645, 611.500 280.647 C 617.128 282.111, 622.421 282.471, 638.500 282.484 C 654.785 282.497, 659.800 282.157, 665.500 280.654 C 669.350 279.639, 675.875 277.170, 680 275.168 C 685.279 272.605, 689.603 269.450, 694.602 264.514 C 699.559 259.618, 702.622 255.537, 704.746 251 C 706.419 247.425, 708.529 241.350, 709.435 237.500 C 710.723 232.028, 711.283 221.549, 712.001 189.500 C 712.507 166.950, 713.095 143.311, 713.308 136.968 C 713.521 130.626, 714.197 124.500, 714.810 123.356 C 715.422 122.211, 717.178 120.759, 718.712 120.129 C 720.245 119.500, 725.325 118.168, 730 117.170 C 738.500 115.355, 738.500 115.355, 738.801 110.773 L 739.102 106.191 703.498 106.149 L 667.895 106.106 668.197 110.706 C 668.500 115.306, 668.500 115.306, 678.428 117.513 C 685.595 119.107, 688.839 120.317, 690.093 121.867 C 691.188 123.219, 692.121 126.876, 692.616 131.756 C 693.049 136.015, 693.424 157.725, 693.451 180 C 693.486 208.849, 693.131 222.514, 692.217 227.500 C 691.511 231.350, 689.594 237.264, 687.957 240.642 C 686.320 244.021, 683.126 248.460, 680.860 250.507 C 678.594 252.555, 674.433 255.286, 671.614 256.576 C 668.633 257.941, 662.934 259.325, 657.994 259.883 C 652.589 260.494, 646.417 260.497, 641.021 259.890 C 635.832 259.307, 630.399 257.956, 627.021 256.411 C 623.807 254.941, 619.535 251.794, 616.799 248.881 C 614.021 245.924, 611.261 241.641, 610.054 238.414 C 608.854 235.207, 607.569 228.108, 606.942 221.226 C 606.317 214.368, 606.004 192.062, 606.187 167.500 C 606.419 136.361, 606.821 124.939, 607.742 123.330 C 608.426 122.137, 610.589 120.631, 612.550 119.984 C 614.511 119.336, 620.027 118.017, 624.808 117.052 C 633.500 115.297, 633.500 115.297, 633.801 110.748 L 634.101 106.200 588 106.200 L 541.899 106.200 542.199 110.748 M 749.201 110.846 C 749.500 115.425, 749.500 115.425, 757.500 117.035 C 761.900 117.921, 767.121 119.188, 769.103 119.852 C 771.085 120.515, 773.785 122.210, 775.103 123.617 C 777.500 126.176, 777.500 126.176, 777.263 172.838 C 777.133 198.502, 776.631 228.980, 776.147 240.566 C 775.663 252.152, 774.787 262.530, 774.199 263.628 C 773.611 264.726, 771.414 266.155, 769.315 266.805 C 767.217 267.454, 762.013 268.538, 757.750 269.213 C 750 270.442, 750 270.442, 750 274.665 L 750 278.889 786 278.853 L 822 278.818 822 274.409 C 822 270, 822 270, 817.447 270 C 814.943 270, 809.753 269.285, 805.913 268.412 C 800.500 267.181, 798.550 266.244, 797.239 264.241 C 795.763 261.990, 795.458 257.029, 794.856 225.579 C 794.476 205.736, 794.128 178.564, 794.083 165.198 L 794 140.896 827.784 181.698 C 846.366 204.139, 872.473 236.113, 885.801 252.750 C 899.130 269.387, 910.325 283, 910.679 283 C 911.034 283, 913.618 282.277, 916.422 281.393 L 921.519 279.786 921.509 205.143 C 921.502 147.060, 921.786 129.557, 922.789 126.247 C 923.498 123.908, 925.073 121.346, 926.289 120.554 C 927.505 119.762, 932.775 118.279, 938 117.259 C 947.500 115.404, 947.500 115.404, 947.801 110.801 L 948.101 106.198 912.501 106.216 L 876.900 106.234 877.200 110.828 C 877.500 115.421, 877.500 115.421, 885.749 116.697 C 890.285 117.398, 895.542 118.617, 897.430 119.406 C 900.040 120.497, 901.141 121.758, 902.027 124.670 C 902.799 127.208, 903.358 143.002, 903.685 171.500 L 904.178 214.500 900.839 210.571 C 899.002 208.410, 886.519 193.335, 873.098 177.071 C 859.677 160.807, 841.254 138.205, 832.158 126.845 L 815.620 106.189 782.261 106.229 L 748.901 106.268 749.201 110.846 M 961.199 110.798 C 961.500 115.418, 961.500 115.418, 970.146 117.152 C 974.901 118.106, 980.385 119.552, 982.332 120.366 C 985.076 121.512, 986.125 122.706, 986.991 125.672 C 987.779 128.370, 988.019 148.897, 987.805 195.223 C 987.500 260.945, 987.500 260.945, 985.346 263.099 C 983.804 264.640, 980.111 265.867, 972.346 267.415 C 961.500 269.578, 961.500 269.578, 961.199 274.190 L 960.899 278.802 1007.499 278.781 L 1054.100 278.761 1053.800 274.204 C 1053.500 269.647, 1053.500 269.647, 1044.500 267.916 C 1039.550 266.963, 1034.286 265.713, 1032.802 265.137 C 1031.319 264.561, 1029.294 262.852, 1028.302 261.339 C 1026.612 258.759, 1026.500 254.489, 1026.500 192.544 C 1026.500 139.552, 1026.765 125.872, 1027.842 123.322 C 1028.753 121.163, 1030.400 119.657, 1032.978 118.625 C 1035.066 117.790, 1040.650 116.565, 1045.387 115.902 C 1054 114.697, 1054 114.697, 1054 110.457 L 1054 106.217 1007.449 106.198 L 960.898 106.179 961.199 110.798 M 1066.198 110.729 C 1066.500 115.300, 1066.500 115.300, 1075.875 117.189 C 1081.031 118.228, 1086.530 119.740, 1088.095 120.549 C 1089.660 121.359, 1091.517 123.029, 1092.220 124.260 C 1093.224 126.017, 1093.500 140.624, 1093.500 192 C 1093.500 244.821, 1093.238 258.121, 1092.147 260.707 C 1091.250 262.832, 1089.733 264.262, 1087.647 264.947 C 1085.916 265.515, 1080.450 266.791, 1075.500 267.781 C 1066.500 269.582, 1066.500 269.582, 1066.200 274.182 L 1065.899 278.781 1114.501 278.810 L 1163.103 278.839 1162.801 274.185 C 1162.500 269.532, 1162.500 269.532, 1153.500 268.257 C 1148.550 267.555, 1142.358 266.273, 1139.740 265.407 C 1137.092 264.531, 1134.431 262.872, 1133.740 261.666 C 1132.855 260.120, 1132.409 251.313, 1132.182 230.879 L 1131.865 202.258 1147.682 202.730 C 1159.633 203.086, 1165.270 202.823, 1170.740 201.656 C 1174.722 200.807, 1181.022 198.666, 1184.740 196.898 C 1189.476 194.647, 1193.602 191.561, 1198.522 186.592 C 1202.835 182.236, 1206.622 177.252, 1208.340 173.674 C 1209.878 170.469, 1211.773 164.844, 1212.551 161.174 C 1213.329 157.503, 1213.965 152.250, 1213.965 149.500 C 1213.965 146.750, 1213.319 141.449, 1212.529 137.720 C 1211.738 133.990, 1209.865 128.686, 1208.366 125.931 C 1206.867 123.177, 1203.741 119.172, 1201.420 117.033 C 1199.098 114.893, 1195.304 112.175, 1192.988 110.994 C 1190.673 109.813, 1185.790 108.225, 1182.139 107.465 C 1176.947 106.385, 1163.554 106.092, 1120.698 106.122 L 1065.897 106.159 1066.198 110.729 M 1446.198 110.729 C 1446.500 115.300, 1446.500 115.300, 1455.875 117.189 C 1461.031 118.228, 1466.530 119.740, 1468.095 120.549 C 1469.660 121.359, 1471.517 123.029, 1472.220 124.260 C 1473.224 126.017, 1473.500 140.624, 1473.500 192 C 1473.500 244.821, 1473.238 258.121, 1472.147 260.707 C 1471.250 262.832, 1469.733 264.262, 1467.647 264.947 C 1465.916 265.515, 1460.450 266.791, 1455.500 267.781 C 1446.500 269.582, 1446.500 269.582, 1446.200 274.182 L 1445.899 278.781 1494.501 278.810 L 1543.103 278.839 1542.801 274.185 C 1542.500 269.532, 1542.500 269.532, 1533.500 268.257 C 1528.550 267.555, 1522.358 266.273, 1519.740 265.407 C 1517.092 264.531, 1514.431 262.872, 1513.740 261.666 C 1512.855 260.120, 1512.409 251.313, 1512.182 230.879 L 1511.865 202.258 1527.682 202.730 C 1539.633 203.086, 1545.270 202.823, 1550.740 201.656 C 1554.722 200.807, 1561.022 198.666, 1564.740 196.898 C 1569.476 194.647, 1573.602 191.561, 1578.522 186.592 C 1582.835 182.236, 1586.622 177.252, 1588.340 173.674 C 1589.878 170.469, 1591.773 164.844, 1592.551 161.174 C 1593.329 157.503, 1593.965 152.250, 1593.965 149.500 C 1593.965 146.750, 1593.319 141.449, 1592.529 137.720 C 1591.738 133.990, 1589.865 128.686, 1588.366 125.931 C 1586.867 123.177, 1583.741 119.172, 1581.420 117.033 C 1579.098 114.893, 1575.304 112.175, 1572.988 110.994 C 1570.673 109.813, 1565.790 108.225, 1562.139 107.465 C 1556.947 106.385, 1543.554 106.092, 1500.698 106.122 L 1445.897 106.159 1446.198 110.729 M 1612.199 110.748 C 1612.500 115.296, 1612.500 115.296, 1622.962 117.638 C 1629.793 119.166, 1634.131 120.686, 1635.462 122.016 C 1637.449 124.002, 1637.515 125.448, 1638.101 179.776 C 1638.594 225.511, 1638.985 236.694, 1640.280 242.163 C 1641.149 245.828, 1643.069 251.383, 1644.547 254.507 C 1646.043 257.670, 1649.623 262.540, 1652.623 265.492 C 1656.075 268.889, 1660.976 272.239, 1666.256 274.810 C 1670.790 277.019, 1677.650 279.645, 1681.500 280.647 C 1687.128 282.111, 1692.421 282.471, 1708.500 282.484 C 1724.785 282.497, 1729.800 282.157, 1735.500 280.654 C 1739.350 279.639, 1745.875 277.170, 1750 275.168 C 1755.279 272.605, 1759.603 269.450, 1764.602 264.514 C 1769.559 259.618, 1772.622 255.537, 1774.746 251 C 1776.419 247.425, 1778.529 241.350, 1779.435 237.500 C 1780.723 232.028, 1781.283 221.549, 1782.001 189.500 C 1782.507 166.950, 1783.095 143.311, 1783.308 136.968 C 1783.521 130.626, 1784.197 124.500, 1784.810 123.356 C 1785.422 122.211, 1787.178 120.759, 1788.712 120.129 C 1790.245 119.500, 1795.325 118.168, 1800 117.170 C 1808.500 115.355, 1808.500 115.355, 1808.801 110.773 L 1809.102 106.191 1773.498 106.149 L 1737.895 106.106 1738.197 110.706 C 1738.500 115.306, 1738.500 115.306, 1748.428 117.513 C 1755.595 119.107, 1758.839 120.317, 1760.093 121.867 C 1761.188 123.219, 1762.121 126.876, 1762.616 131.756 C 1763.049 136.015, 1763.424 157.725, 1763.451 180 C 1763.486 208.849, 1763.131 222.514, 1762.217 227.500 C 1761.511 231.350, 1759.594 237.264, 1757.957 240.642 C 1756.320 244.021, 1753.126 248.460, 1750.860 250.507 C 1748.594 252.555, 1744.433 255.286, 1741.614 256.576 C 1738.633 257.941, 1732.934 259.325, 1727.994 259.883 C 1722.589 260.494, 1716.417 260.497, 1711.021 259.890 C 1705.832 259.307, 1700.399 257.956, 1697.021 256.411 C 1693.807 254.941, 1689.535 251.794, 1686.799 248.881 C 1684.021 245.924, 1681.261 241.641, 1680.054 238.414 C 1678.854 235.207, 1677.569 228.108, 1676.942 221.226 C 1676.317 214.368, 1676.004 192.062, 1676.187 167.500 C 1676.419 136.361, 1676.821 124.939, 1677.742 123.330 C 1678.426 122.137, 1680.589 120.631, 1682.550 119.984 C 1684.511 119.336, 1690.027 118.017, 1694.808 117.052 C 1703.500 115.297, 1703.500 115.297, 1703.801 110.748 L 1704.101 106.200 1658 106.200 L 1611.899 106.200 1612.199 110.748 M 1820.199 110.772 C 1820.500 115.357, 1820.500 115.357, 1831.500 117.707 C 1838.806 119.268, 1843.172 120.728, 1844.500 122.056 C 1846.455 124.009, 1846.506 125.579, 1846.778 191.254 C 1846.979 240.057, 1846.741 259.210, 1845.909 261.220 C 1845.070 263.246, 1843.657 264.285, 1840.631 265.100 C 1838.359 265.712, 1832.900 266.985, 1828.500 267.929 C 1820.500 269.645, 1820.500 269.645, 1820.202 274.156 L 1819.904 278.666 1892.910 278.772 L 1965.916 278.878 1968.511 270.189 C 1969.938 265.410, 1973.530 254.167, 1976.492 245.204 L 1981.878 228.908 1975.819 229.204 C 1969.760 229.500, 1969.760 229.500, 1963.500 239.500 C 1960.057 245, 1955.401 251.579, 1953.154 254.120 C 1950.907 256.661, 1947.365 259.560, 1945.284 260.562 C 1941.980 262.154, 1937.981 262.439, 1913.750 262.814 L 1886 263.244 1886 195.090 C 1886 138.385, 1886.239 126.363, 1887.424 123.527 C 1888.528 120.885, 1889.596 119.983, 1892.174 119.512 C 1894.003 119.178, 1900.225 118.126, 1906 117.174 C 1916.500 115.444, 1916.500 115.444, 1916.800 110.828 L 1917.101 106.212 1868.500 106.200 L 1819.898 106.188 1820.199 110.772 M 2202.195 110.257 C 2202.500 114.402, 2202.500 114.402, 2211.431 116.155 C 2216.344 117.119, 2221.648 118.440, 2223.220 119.091 C 2224.791 119.742, 2226.622 121.225, 2227.288 122.387 C 2228.195 123.968, 2228.572 140.926, 2228.784 189.765 C 2228.976 233.792, 2228.721 256.322, 2228 258.998 C 2227.413 261.181, 2226.014 263.457, 2224.893 264.057 C 2223.771 264.658, 2218.274 266.174, 2212.677 267.426 C 2202.500 269.704, 2202.500 269.704, 2202.200 274.243 L 2201.899 278.783 2248 278.789 L 2294.101 278.796 2293.801 274.189 C 2293.500 269.582, 2293.500 269.582, 2284.500 267.781 C 2279.550 266.791, 2274.104 265.522, 2272.397 264.961 C 2270.634 264.382, 2268.729 262.768, 2267.984 261.221 C 2267.033 259.247, 2266.548 250.594, 2266.217 229.704 L 2265.760 200.908 2273.004 201.204 L 2280.248 201.500 2292.330 225.500 C 2298.975 238.700, 2307.445 256.025, 2311.152 264 L 2317.893 278.500 2352.497 278.661 L 2387.102 278.821 2386.801 274.262 C 2386.500 269.703, 2386.500 269.703, 2377.808 267.948 C 2373.027 266.983, 2367.615 265.698, 2365.781 265.093 C 2363.947 264.487, 2360.752 262.596, 2358.681 260.889 C 2356.610 259.182, 2352.763 254.571, 2350.131 250.643 C 2347.499 246.714, 2341.458 237.151, 2336.708 229.391 C 2331.957 221.630, 2325.402 210.763, 2322.142 205.241 L 2316.215 195.201 2321.327 192.418 C 2324.139 190.888, 2328.439 187.805, 2330.883 185.568 C 2333.327 183.331, 2336.986 178.947, 2339.013 175.828 C 2341.041 172.708, 2343.720 166.982, 2344.967 163.103 C 2346.859 157.219, 2347.169 154.431, 2346.836 146.275 C 2346.494 137.899, 2345.989 135.544, 2343.304 129.820 C 2341.581 126.147, 2338.350 121.165, 2336.124 118.750 C 2333.898 116.335, 2329.879 113.163, 2327.192 111.701 C 2324.506 110.239, 2319.424 108.374, 2315.900 107.557 C 2310.647 106.338, 2299.801 106.074, 2255.692 106.091 L 2201.890 106.111 2202.195 110.257 M 308.593 119.718 C 306.067 123.964, 304 128.014, 304 128.718 C 304 129.670, 306.431 130, 313.441 130 C 318.634 130, 323.136 129.590, 323.446 129.088 C 323.756 128.586, 321.870 124.548, 319.255 120.113 C 316.640 115.678, 314.205 112.038, 313.843 112.025 C 313.482 112.011, 311.120 115.473, 308.593 119.718 M 1326.699 117.005 C 1323.295 117.440, 1317.846 119.255, 1313.514 121.396 C 1308.692 123.779, 1304.672 126.685, 1301.927 129.772 C 1299.614 132.373, 1296.217 137.650, 1294.377 141.500 C 1292.537 145.350, 1290.148 151.966, 1289.069 156.203 C 1287.989 160.439, 1286.576 169.540, 1285.929 176.428 C 1285.038 185.898, 1285.028 192.346, 1285.886 202.888 C 1286.514 210.595, 1288.130 221.225, 1289.501 226.663 C 1290.864 232.074, 1293.589 239.773, 1295.556 243.773 C 1297.615 247.960, 1301.331 253.292, 1304.316 256.341 C 1307.205 259.292, 1312.012 262.820, 1315.174 264.311 C 1318.295 265.783, 1323.892 267.418, 1327.613 267.945 C 1331.846 268.544, 1337.121 268.555, 1341.703 267.974 C 1345.732 267.463, 1351.491 265.880, 1354.502 264.456 C 1357.513 263.032, 1361.913 259.929, 1364.280 257.562 C 1366.647 255.195, 1370.053 250.502, 1371.848 247.133 C 1373.644 243.764, 1376.202 236.717, 1377.532 231.473 C 1378.862 226.229, 1380.463 216.890, 1381.090 210.720 C 1381.767 204.055, 1381.955 194.439, 1381.554 187.035 C 1381.183 180.179, 1380.234 170.729, 1379.446 166.035 C 1378.658 161.341, 1376.814 153.732, 1375.348 149.127 C 1373.883 144.522, 1370.881 138.054, 1368.677 134.753 C 1366.326 131.233, 1362.208 126.941, 1358.715 124.369 C 1355.441 121.959, 1350.453 119.353, 1347.631 118.578 C 1344.809 117.803, 1340.250 116.965, 1337.500 116.716 C 1334.750 116.467, 1329.889 116.597, 1326.699 117.005 M 1137.500 120.918 L 1132.500 121.500 1132.237 154.629 L 1131.973 187.758 1138.237 188.247 C 1141.682 188.515, 1147.200 188.327, 1150.500 187.827 C 1153.930 187.308, 1158.427 185.744, 1161 184.174 C 1163.864 182.427, 1166.642 179.523, 1168.641 176.190 C 1170.436 173.198, 1172.315 168.129, 1173.025 164.366 C 1173.732 160.620, 1174.048 154.258, 1173.759 149.615 C 1173.434 144.408, 1172.456 139.605, 1171.058 136.357 C 1169.853 133.556, 1167.434 129.877, 1165.684 128.183 C 1163.933 126.489, 1160.475 124.233, 1158 123.171 C 1155.525 122.109, 1151.025 121.036, 1148 120.788 C 1144.975 120.540, 1140.250 120.599, 1137.500 120.918 M 1517.500 120.918 L 1512.500 121.500 1512.237 154.629 L 1511.973 187.758 1518.237 188.247 C 1521.682 188.515, 1527.200 188.327, 1530.500 187.827 C 1533.930 187.308, 1538.427 185.744, 1541 184.174 C 1543.864 182.427, 1546.642 179.523, 1548.641 176.190 C 1550.436 173.198, 1552.315 168.129, 1553.025 164.366 C 1553.732 160.620, 1554.048 154.258, 1553.759 149.615 C 1553.434 144.408, 1552.456 139.605, 1551.058 136.357 C 1549.853 133.556, 1547.434 129.877, 1545.684 128.183 C 1543.933 126.489, 1540.475 124.233, 1538 123.171 C 1535.525 122.109, 1531.025 121.036, 1528 120.788 C 1524.975 120.540, 1520.250 120.599, 1517.500 120.918 M 2277 120.580 C 2276.175 120.741, 2273.363 121.154, 2270.750 121.498 L 2266 122.123 2266 153.431 L 2266 184.740 2270.623 185.261 C 2273.165 185.547, 2278.411 185.384, 2282.280 184.899 C 2286.878 184.321, 2291.079 183.028, 2294.407 181.165 C 2298.045 179.128, 2300.407 176.818, 2302.672 173.081 C 2304.715 169.711, 2306.266 165.352, 2307.027 160.839 C 2307.685 156.940, 2307.917 151.317, 2307.549 148.165 C 2307.187 145.049, 2306.224 140.426, 2305.411 137.891 C 2304.598 135.356, 2302.392 131.482, 2300.510 129.283 C 2298.591 127.041, 2294.981 124.399, 2292.294 123.270 C 2289.657 122.163, 2285.475 121.039, 2283 120.772 C 2280.525 120.506, 2277.825 120.420, 2277 120.580 M 156.623 129.250 C 155.658 132.688, 154.253 136.914, 153.502 138.642 C 152.623 140.663, 149.807 143.289, 145.609 146.004 C 142.019 148.326, 138.389 151.284, 137.541 152.577 C 136.694 153.871, 136 156.263, 136 157.893 C 136 159.523, 136.707 161.564, 137.571 162.429 C 138.436 163.293, 140.618 164, 142.421 164 C 144.439 164, 147.213 162.904, 149.636 161.149 C 151.801 159.581, 154.861 156.768, 156.437 154.899 C 158.014 153.029, 159.910 150.052, 160.652 148.282 C 161.397 146.504, 162 141.537, 162 137.181 C 162 132.846, 161.506 127.881, 160.902 126.149 C 160.298 124.417, 159.484 123, 159.091 123 C 158.699 123, 157.589 125.813, 156.623 129.250 M 269.211 145.006 C 271.020 148.309, 273.437 152.205, 274.582 153.664 C 276.663 156.316, 276.663 156.316, 280.515 149.908 C 282.634 146.384, 285.011 142.488, 285.798 141.250 C 287.230 139, 287.230 139, 276.576 139 L 265.922 139 269.211 145.006 M 289.557 152.096 C 284.662 160.424, 282.085 165.793, 282.480 166.846 C 282.822 167.756, 286.341 173.989, 290.301 180.699 L 297.500 192.898 313.650 192.949 L 329.800 193 337.926 179.381 L 346.052 165.761 340.397 156.131 C 337.286 150.834, 333.668 144.813, 332.356 142.750 C 329.972 139, 329.972 139, 313.613 139 L 297.255 139 289.557 152.096 M 341 139.592 C 341 139.917, 343.133 143.742, 345.739 148.092 C 348.346 152.441, 350.732 156, 351.040 156 C 351.349 156, 353.717 152.502, 356.301 148.227 C 358.885 143.952, 361 140.127, 361 139.727 C 361 139.327, 356.500 139, 351 139 C 345.500 139, 341 139.266, 341 139.592 M 2069.349 183.888 L 2057.320 211.732 2070.910 212.135 C 2078.385 212.356, 2089.087 212.304, 2094.693 212.019 L 2104.886 211.500 2093.348 184 C 2087.002 168.875, 2081.712 156.397, 2081.593 156.272 C 2081.475 156.147, 2075.965 168.574, 2069.349 183.888 M 271.601 182.666 C 269.090 186.975, 267.028 191.063, 267.018 191.750 C 267.005 192.668, 269.657 193, 277 193 C 282.500 193, 287 192.847, 287 192.660 C 287 192.472, 284.745 188.568, 281.989 183.982 C 279.234 179.397, 276.796 175.462, 276.572 175.239 C 276.348 175.015, 274.111 178.357, 271.601 182.666 M 116.491 177.014 C 116.147 177.571, 116.182 181.660, 116.569 186.099 C 117.125 192.472, 117.771 194.762, 119.637 196.980 C 120.936 198.525, 122 200.249, 122 200.811 C 122 201.373, 123.091 202.658, 124.423 203.667 C 126.623 205.331, 126.899 206.424, 127.408 215.500 C 127.717 221, 128.256 229.125, 128.607 233.556 C 128.957 237.987, 129.830 242.414, 130.546 243.394 C 131.263 244.374, 132.659 245.020, 133.649 244.829 C 134.640 244.638, 135.954 243.471, 136.570 242.235 C 137.187 240.999, 138.280 231.898, 138.999 222.012 C 140.145 206.275, 140.531 203.966, 142.103 203.467 C 143.090 203.154, 144.194 201.908, 144.555 200.699 C 144.917 199.489, 146.103 197.794, 147.191 196.932 C 148.669 195.760, 149.432 193.306, 150.209 187.225 C 150.780 182.750, 150.981 178.393, 150.655 177.544 C 150.154 176.239, 147.517 176, 133.590 176 C 123.538 176, 116.874 176.395, 116.491 177.014 M 345.620 183.795 C 343.079 188.129, 341 191.974, 341 192.338 C 341 192.702, 345.500 193, 351 193 C 356.500 193, 361 192.588, 361 192.085 C 361 191.582, 359.069 187.901, 356.709 183.905 C 354.349 179.909, 351.928 176.476, 351.329 176.276 C 350.731 176.077, 348.162 179.460, 345.620 183.795 M 303.469 202.049 C 303.282 202.352, 305.172 206.064, 307.668 210.299 C 310.437 214.998, 312.848 217.992, 313.853 217.978 C 314.856 217.965, 317.166 214.971, 319.760 210.322 C 322.103 206.122, 323.903 202.576, 323.760 202.441 C 323.617 202.306, 319.069 202.039, 313.654 201.848 C 308.238 201.657, 303.655 201.747, 303.469 202.049 M 271.196 338.264 C 270.274 339.375, 270.037 347.503, 270.236 371.113 L 270.500 402.486 282 402.590 C 291.062 402.672, 294.742 403.147, 299.358 404.830 C 302.579 406.005, 307.702 408.313, 310.741 409.959 C 313.781 411.606, 316.657 412.712, 317.134 412.417 C 317.610 412.123, 318 399.345, 318 384.022 L 318 356.161 312.908 350.590 C 309.345 346.691, 305.544 343.895, 300.249 341.279 C 293.299 337.844, 291.856 337.508, 282.551 337.164 C 274.503 336.866, 272.168 337.092, 271.196 338.264 M 342.666 339.074 C 339.458 340.177, 335.155 342.139, 333.105 343.434 C 331.054 344.728, 327.267 348.134, 324.688 351.002 L 320 356.216 320 384.049 C 320 400.852, 320.382 412.118, 320.965 412.478 C 321.496 412.806, 323.699 411.904, 325.861 410.473 C 328.023 409.042, 333.102 406.689, 337.146 405.243 C 343.371 403.018, 346.227 402.606, 355.750 402.557 L 367 402.500 367 370.357 C 367 341.969, 366.815 338.143, 365.418 337.607 C 364.548 337.273, 360.386 337.015, 356.168 337.033 C 351.174 337.055, 346.466 337.767, 342.666 339.074 M 136.140 345.008 C 131.542 346.601, 125.653 349.018, 123.052 350.378 C 120.452 351.737, 114.989 353.967, 110.912 355.333 C 106.835 356.699, 100.135 359.053, 96.022 360.565 C 91.909 362.076, 87.972 363.886, 87.272 364.585 C 86.362 365.495, 86 369.895, 86 380.036 C 86 392.554, 86.185 394.143, 87.582 393.607 C 88.452 393.273, 89.378 393, 89.641 393 C 89.903 393, 89.840 392.550, 89.500 392 C 89.160 391.450, 89.373 391, 89.972 391 C 90.572 391, 91.322 391.675, 91.638 392.500 C 91.955 393.325, 92.841 394, 93.607 394 C 94.717 394, 95 391.663, 95 382.500 C 95 376.175, 95.144 371, 95.321 371 C 95.497 371, 100.560 372.847, 106.571 375.104 C 112.582 377.361, 119.525 380.125, 122 381.245 C 124.475 382.366, 130.550 384.792, 135.500 386.636 C 140.450 388.481, 145.344 389.992, 146.377 389.995 C 147.409 389.998, 153.259 388.125, 159.377 385.833 C 165.494 383.541, 170.650 381.291, 170.833 380.833 C 171.017 380.375, 171.637 380, 172.211 380 C 172.786 380, 179.995 377.516, 188.231 374.480 C 196.467 371.444, 204.060 368.503, 205.103 367.945 C 206.146 367.386, 207 366.545, 207 366.075 C 207 365.605, 204.863 364.210, 202.250 362.974 C 199.637 361.739, 193.900 359.476, 189.500 357.944 C 185.100 356.413, 178.800 354.183, 175.500 352.988 C 172.200 351.794, 168.951 350.363, 168.279 349.810 C 167.608 349.256, 162.662 347.273, 157.289 345.402 C 151.916 343.531, 146.841 342.025, 146.010 342.055 C 145.180 342.085, 140.738 343.414, 136.140 345.008 M 261.250 342.662 C 260.282 343.053, 260 351.311, 260 379.208 C 260 415.250, 260 415.250, 263.233 414.603 C 265.011 414.248, 270.560 413.500, 275.565 412.942 C 281.757 412.252, 288.140 412.257, 295.547 412.959 C 301.532 413.526, 308.020 414.288, 309.965 414.652 C 313.104 415.240, 313.354 415.137, 312.195 413.738 C 311.477 412.872, 307.427 410.889, 303.195 409.331 C 296.134 406.733, 294.367 406.500, 281.750 406.500 L 267.999 406.500 268 374.250 C 268 342, 268 342, 265.250 342.079 C 263.738 342.122, 261.938 342.385, 261.250 342.662 M 369.764 374.232 L 369.500 406.465 358 406.183 C 349.956 405.986, 344.745 406.370, 340.661 407.461 C 337.450 408.319, 332.612 409.972, 329.911 411.134 C 327.210 412.296, 325 413.697, 325 414.248 C 325 414.826, 326.258 414.998, 327.972 414.656 C 329.606 414.329, 335.871 413.569, 341.894 412.967 C 349.600 412.196, 355.460 412.179, 361.672 412.908 C 366.527 413.477, 372.188 414.240, 374.250 414.602 L 378 415.262 378 379.831 C 378 353.607, 377.688 344.088, 376.800 343.200 C 376.140 342.540, 374.346 342, 372.814 342 C 370.028 342, 370.028 342, 369.764 374.232 M 1578.798 351.931 C 1575.661 352.934, 1571.101 354.923, 1568.663 356.351 C 1566.226 357.780, 1562.152 361.262, 1559.610 364.089 C 1556.163 367.923, 1554.447 371.011, 1552.860 376.234 C 1551.218 381.642, 1550.868 384.688, 1551.327 389.602 C 1551.691 393.495, 1552.988 398.144, 1554.670 401.578 C 1556.236 404.777, 1559.535 409.094, 1562.342 411.618 C 1565.070 414.071, 1571.556 418.079, 1576.883 420.605 C 1582.173 423.112, 1590.182 426.952, 1594.683 429.137 C 1599.608 431.528, 1604.260 434.652, 1606.367 436.984 C 1608.292 439.115, 1610.344 442.578, 1610.928 444.679 C 1611.511 446.781, 1611.991 449.538, 1611.994 450.807 C 1611.997 452.076, 1611.475 455.201, 1610.832 457.751 C 1610.032 460.931, 1608.333 463.719, 1605.425 466.628 C 1602.526 469.526, 1599.517 471.363, 1595.911 472.434 C 1593.010 473.295, 1587.681 473.993, 1584.068 473.985 C 1580.456 473.977, 1574.595 473.286, 1571.044 472.449 C 1567.493 471.612, 1561.971 469.753, 1558.773 468.318 C 1555.575 466.882, 1552.821 465.886, 1552.653 466.104 C 1552.485 466.322, 1551.431 469.650, 1550.310 473.500 C 1548.389 480.102, 1548.371 480.569, 1550 481.711 C 1550.950 482.378, 1555.277 484.139, 1559.614 485.625 C 1565.943 487.794, 1569.878 488.416, 1579.543 488.777 C 1586.799 489.049, 1593.860 488.756, 1597.306 488.040 C 1600.451 487.387, 1606.125 485.302, 1609.914 483.406 C 1613.725 481.500, 1618.463 478.124, 1620.517 475.850 C 1622.559 473.590, 1625.411 469.211, 1626.854 466.120 C 1628.933 461.667, 1629.550 458.632, 1629.823 451.500 C 1630.104 444.167, 1629.772 441.444, 1628.030 436.798 C 1626.831 433.601, 1623.913 428.895, 1621.385 426.084 C 1618.907 423.327, 1614.318 419.525, 1611.189 417.636 C 1608.060 415.746, 1600.382 412.061, 1594.127 409.447 C 1587.871 406.832, 1580.938 403.300, 1578.719 401.597 C 1576.501 399.893, 1573.808 397.316, 1572.736 395.868 C 1571.663 394.421, 1570.413 391.240, 1569.957 388.800 C 1569.501 386.360, 1569.520 382.630, 1569.998 380.510 C 1570.476 378.389, 1571.726 375.495, 1572.776 374.077 C 1573.825 372.660, 1576.173 370.487, 1577.993 369.248 C 1579.813 368.009, 1583.147 366.495, 1585.401 365.882 C 1587.697 365.259, 1593.239 364.978, 1598.003 365.245 C 1603.992 365.580, 1608.419 366.493, 1612.978 368.335 C 1616.538 369.773, 1619.740 370.623, 1620.094 370.225 C 1620.448 369.826, 1621.694 366.609, 1622.862 363.076 C 1624.030 359.543, 1624.877 356.563, 1624.743 356.454 C 1624.609 356.344, 1623.060 355.522, 1621.300 354.627 C 1619.539 353.732, 1615.264 352.332, 1611.800 351.515 C 1608.238 350.675, 1600.937 350.047, 1595 350.069 C 1587.683 350.096, 1582.771 350.660, 1578.798 351.931 M 1427.500 351.502 C 1426.950 351.692, 1423.912 352.139, 1420.750 352.495 L 1415 353.144 1415 420.072 L 1415 487 1424 487 L 1433 487 1433 458 L 1433 429 1443.750 429.006 C 1449.662 429.009, 1456.200 429.483, 1458.277 430.060 C 1460.355 430.637, 1463.646 432.507, 1465.592 434.215 C 1467.537 435.923, 1470.167 439.385, 1471.436 441.910 C 1472.704 444.434, 1475.602 454.056, 1477.875 463.292 C 1480.149 472.528, 1482.659 481.640, 1483.453 483.542 C 1484.898 487, 1484.898 487, 1494.475 487 C 1504.051 487, 1504.051 487, 1502.636 484.250 C 1501.858 482.738, 1498.884 472.275, 1496.027 461 C 1493.170 449.725, 1489.696 438.403, 1488.306 435.839 C 1486.916 433.276, 1484.366 429.816, 1482.640 428.150 C 1480.913 426.484, 1478.226 424.465, 1476.669 423.663 C 1473.838 422.203, 1473.838 422.203, 1479.937 418.953 C 1483.292 417.165, 1487.655 413.910, 1489.633 411.721 C 1491.611 409.531, 1494.408 405.211, 1495.849 402.120 C 1498.065 397.366, 1498.469 395.112, 1498.469 387.500 C 1498.469 379.750, 1498.081 377.667, 1495.678 372.500 C 1494.143 369.200, 1491.685 365.244, 1490.217 363.709 C 1488.749 362.174, 1485.473 359.587, 1482.938 357.960 C 1480.402 356.333, 1474.807 354.102, 1470.504 353.001 C 1464.093 351.361, 1459.595 351.014, 1445.590 351.079 C 1436.191 351.122, 1428.050 351.313, 1427.500 351.502 M 1773.250 352.186 L 1765 353.200 1765 420.015 L 1765 486.829 1772.414 487.524 C 1776.492 487.906, 1788.305 488, 1798.664 487.733 C 1813.500 487.350, 1819.305 486.787, 1826 485.082 C 1830.675 483.892, 1837.875 481.276, 1842 479.270 C 1847.537 476.576, 1851.501 473.613, 1857.146 467.948 C 1862.762 462.312, 1865.736 458.312, 1868.345 452.887 C 1870.299 448.824, 1872.652 442.800, 1873.575 439.500 C 1874.595 435.855, 1875.444 428.123, 1875.739 419.802 C 1876.114 409.199, 1875.843 404.390, 1874.536 398.516 C 1873.607 394.341, 1871.080 387.396, 1868.921 383.082 C 1865.984 377.214, 1863.241 373.583, 1858.040 368.677 C 1853.487 364.382, 1848.568 360.924, 1843.793 358.664 C 1839.782 356.765, 1833.575 354.433, 1830 353.482 C 1825.050 352.165, 1818.493 351.683, 1802.500 351.462 C 1790.950 351.302, 1777.787 351.627, 1773.250 352.186 M 2090.250 352.186 L 2082 353.200 2082 420.015 L 2082 486.829 2089.414 487.524 C 2093.492 487.906, 2105.305 488, 2115.664 487.733 C 2130.500 487.350, 2136.305 486.787, 2143 485.082 C 2147.675 483.892, 2154.875 481.276, 2159 479.270 C 2164.537 476.576, 2168.501 473.613, 2174.146 467.948 C 2179.762 462.312, 2182.736 458.312, 2185.345 452.887 C 2187.299 448.824, 2189.652 442.800, 2190.575 439.500 C 2191.595 435.855, 2192.444 428.123, 2192.739 419.802 C 2193.114 409.199, 2192.843 404.390, 2191.536 398.516 C 2190.607 394.341, 2188.080 387.396, 2185.921 383.082 C 2182.984 377.214, 2180.241 373.583, 2175.040 368.677 C 2170.487 364.382, 2165.568 360.924, 2160.793 358.664 C 2156.782 356.765, 2150.575 354.433, 2147 353.482 C 2142.050 352.165, 2135.493 351.683, 2119.500 351.462 C 2107.950 351.302, 2094.787 351.627, 2090.250 352.186 M 736 397.935 C 736 435.333, 736.285 445.229, 737.531 451.185 C 738.374 455.208, 740.360 461.281, 741.946 464.680 C 743.532 468.078, 746.754 472.948, 749.107 475.500 C 751.460 478.053, 755.339 481.287, 757.728 482.687 C 760.117 484.087, 764.796 486.080, 768.125 487.116 C 772.397 488.446, 777.167 488.997, 784.339 488.988 C 789.935 488.982, 796.912 488.334, 799.869 487.547 C 802.822 486.761, 807.627 484.949, 810.547 483.521 C 813.650 482.003, 818.131 478.465, 821.334 475.006 C 824.348 471.751, 827.938 466.705, 829.314 463.794 C 830.689 460.882, 832.606 455.800, 833.574 452.500 C 835.115 447.245, 835.384 440.631, 835.737 399.250 L 836.139 352 827.070 352 L 818 352 817.992 391.750 C 817.987 413.613, 817.533 435.432, 816.982 440.237 C 816.432 445.043, 815.087 451.365, 813.994 454.285 C 812.902 457.206, 810.679 461.403, 809.054 463.611 C 807.430 465.820, 803.722 468.922, 800.813 470.505 C 796.525 472.839, 793.958 473.466, 787.238 473.818 C 780.913 474.150, 777.856 473.835, 774.322 472.485 C 771.776 471.513, 767.927 469.122, 765.769 467.172 C 763.610 465.222, 760.720 461.407, 759.345 458.695 C 757.971 455.982, 756.213 450.778, 755.440 447.131 C 754.356 442.014, 754.031 430.395, 754.017 396.250 L 754 352 745 352 L 736 352 736 397.935 M 898 419.500 L 898 487 906.635 487 L 915.269 487 914.808 431.487 L 914.346 375.975 919.468 385.737 C 922.285 391.107, 926.305 398.425, 928.402 402 C 930.499 405.575, 943.260 426.163, 956.759 447.750 L 981.303 487 990.652 487 L 1000 487 1000 419.500 L 1000 352 991.401 352 L 982.801 352 983.151 406.352 L 983.500 460.703 977.423 449.102 C 974.081 442.721, 969.434 434.350, 967.097 430.500 C 964.760 426.650, 952.664 407.413, 940.217 387.750 L 917.586 352 907.793 352 L 898 352 898 419.500 M 1061 419.500 L 1061 487 1070 487 L 1079 487 1079 419.500 L 1079 352 1070 352 L 1061 352 1061 419.500 M 1127.170 353.402 C 1127.351 354.213, 1137.175 384.602, 1149 420.932 L 1170.500 486.986 1180.608 486.993 L 1190.715 487 1211.506 428.750 C 1222.941 396.712, 1233.797 366.337, 1235.630 361.250 L 1238.964 352 1229.153 352 L 1219.341 352 1204.132 396.750 C 1195.767 421.363, 1187.235 447.401, 1185.171 454.613 L 1181.419 467.726 1178.547 456.613 C 1176.968 450.501, 1170.537 429.075, 1164.257 409 C 1157.978 388.925, 1151.392 368, 1149.623 362.500 L 1146.406 352.500 1136.622 352.213 C 1128.417 351.972, 1126.892 352.164, 1127.170 353.402 M 1285 419.500 L 1285 487 1323 487 L 1361 487 1361 479.500 L 1361 472 1332 472 L 1303 472 1303 448 L 1303 424 1329 424 L 1355 424 1355 416.500 L 1355 409 1329 409 L 1303 409 1303 388 L 1303 367 1330.500 367 L 1358 367 1358 359.500 L 1358 352 1321.500 352 L 1285 352 1285 419.500 M 1685 419.500 L 1685 487 1694 487 L 1703 487 1703 419.500 L 1703 352 1694 352 L 1685 352 1685 419.500 M 1939.656 418.825 C 1927.195 455.613, 1917 486.002, 1917 486.356 C 1917 486.710, 1921.195 487, 1926.323 487 L 1935.646 487 1942.406 466 L 1949.165 445 1972.832 445.004 L 1996.500 445.008 2003.500 465.754 L 2010.500 486.500 2020.329 486.787 C 2029.969 487.069, 2030.145 487.033, 2029.480 484.939 C 2029.108 483.764, 2018.803 453.485, 2006.581 417.651 L 1984.359 352.500 1973.336 352.219 L 1962.312 351.937 1939.656 418.825 M 1435.750 365.659 C 1433 366.133, 1433 366.133, 1433 390.710 L 1433 415.287 1445.750 414.704 C 1452.763 414.383, 1460.155 413.631, 1462.177 413.033 C 1464.200 412.435, 1468.006 410.496, 1470.635 408.723 C 1473.795 406.593, 1476.257 403.855, 1477.896 400.648 C 1479.758 397.004, 1480.367 394.266, 1480.343 389.648 C 1480.325 386.147, 1479.575 381.778, 1478.602 379.500 C 1477.663 377.300, 1475.740 374.295, 1474.329 372.823 C 1472.919 371.350, 1469.455 369.135, 1466.632 367.900 C 1462.446 366.068, 1459.381 365.611, 1450 365.420 C 1443.675 365.291, 1437.263 365.398, 1435.750 365.659 M 1791 365.610 C 1789.075 365.847, 1786.487 366.264, 1785.250 366.539 C 1783 367.038, 1783 367.038, 1783 419.876 L 1783 472.713 1791.750 473.357 C 1796.563 473.712, 1804.197 473.573, 1808.716 473.049 C 1813.235 472.524, 1818.849 471.579, 1821.191 470.949 C 1823.533 470.318, 1828.121 468.453, 1831.386 466.805 C 1834.650 465.157, 1839.612 461.489, 1842.411 458.654 C 1845.210 455.820, 1848.747 451.171, 1850.272 448.325 C 1851.796 445.478, 1853.934 439.669, 1855.022 435.415 C 1856.384 430.090, 1857 424.368, 1857 417.050 C 1857 410.712, 1856.377 404.014, 1855.457 400.460 C 1854.609 397.182, 1852.986 392.571, 1851.850 390.214 C 1850.715 387.856, 1847.608 383.544, 1844.946 380.631 C 1842.284 377.718, 1837.457 373.923, 1834.221 372.199 C 1830.985 370.474, 1825.674 368.359, 1822.419 367.500 C 1819.163 366.641, 1811.550 365.768, 1805.500 365.560 C 1799.450 365.351, 1792.925 365.374, 1791 365.610 M 2108 365.610 C 2106.075 365.847, 2103.488 366.264, 2102.250 366.539 C 2100 367.038, 2100 367.038, 2100 419.876 L 2100 472.713 2108.750 473.357 C 2113.563 473.712, 2121.197 473.573, 2125.716 473.049 C 2130.235 472.524, 2135.849 471.579, 2138.191 470.949 C 2140.533 470.318, 2145.121 468.453, 2148.386 466.805 C 2151.650 465.157, 2156.612 461.489, 2159.411 458.654 C 2162.210 455.820, 2165.747 451.171, 2167.272 448.325 C 2168.796 445.478, 2170.934 439.669, 2172.022 435.415 C 2173.384 430.090, 2174 424.368, 2174 417.050 C 2174 410.712, 2173.377 404.014, 2172.457 400.460 C 2171.609 397.182, 2169.986 392.571, 2168.850 390.214 C 2167.715 387.856, 2164.608 383.544, 2161.946 380.631 C 2159.284 377.718, 2154.457 373.923, 2151.221 372.199 C 2147.985 370.474, 2142.674 368.359, 2139.419 367.500 C 2136.163 366.641, 2128.550 365.768, 2122.500 365.560 C 2116.450 365.351, 2109.925 365.374, 2108 365.610 M 1970.650 376.263 C 1969.710 380.243, 1965.397 394.188, 1961.065 407.250 L 1953.189 431 1972.939 431 L 1992.689 431 1986.273 412.250 C 1982.744 401.938, 1978.298 388.122, 1976.393 381.548 C 1974.488 374.975, 1972.802 369.468, 1972.645 369.311 C 1972.488 369.155, 1971.590 372.283, 1970.650 376.263 M 114.667 381.667 C 114.300 382.033, 114 386.563, 114 391.732 C 114 396.902, 114.486 402.039, 115.080 403.149 C 115.673 404.258, 118.486 406.249, 121.330 407.573 C 126.253 409.865, 127.457 409.980, 146.500 409.968 C 164.456 409.957, 166.958 409.748, 170.982 407.923 C 173.447 406.805, 176.260 405.170, 177.232 404.290 C 178.716 402.947, 179 400.946, 179 391.845 C 179 382.182, 178.809 381, 177.250 381.002 C 176.287 381.003, 169.464 383.253, 162.088 386.002 C 154.711 388.751, 147.732 391, 146.579 391 C 145.427 391, 140.887 389.708, 136.492 388.130 C 132.096 386.551, 126.121 384.301, 123.213 383.130 C 120.305 381.958, 117.343 381, 116.630 381 C 115.917 381, 115.033 381.300, 114.667 381.667" stroke="none" fill="#fff" fill-rule="evenodd"/></svg>