<?xml version="1.0" standalone="no"?>
<!DOCTYPE svg PUBLIC "-//W3C//DTD SVG 20010904//EN"
 "http://www.w3.org/TR/2001/REC-SVG-20010904/DTD/svg10.dtd">

<svg version="1.0" xmlns="http://www.w3.org/2000/svg"
 width="200.000000pt" viewBox="0 0 1503.000000 507.000000"
 preserveAspectRatio="xMidYMid meet">

   <g transform="translate(0.000000,507.000000) scale(0.100000,-0.100000)"
   fill="#000000" stroke="none">
   <path fill="#fff" class="logo" d="M2405 4345 l-16 -55 -59 0 c-33 0 -60 -3 -60 -7 0 -5 20 -21 45 -36
   25 -16 45 -32 45 -36 0 -4 -7 -29 -16 -55 -9 -26 -14 -49 -12 -51 3 -3 22 8
   44 25 21 16 43 30 47 30 5 0 28 -14 53 -30 49 -34 51 -32 29 30 -8 23 -15 45
   -15 49 0 3 20 20 45 36 24 17 45 33 45 38 0 4 -27 7 -59 7 l-60 0 -16 55 c-8
   30 -17 55 -20 55 -2 0 -11 -25 -20 -55z"/>
   <path fill="#fff" class="logo" d="M2952 4124 c-2 -83 11 -120 52 -148 14 -9 28 -16 32 -16 7 0 -1 63
   -12 97 -5 15 -4 15 5 3 5 -8 13 -33 17 -55 8 -52 16 -63 25 -39 28 70 -9 170
   -76 210 l-41 23 -2 -75z"/>
   <path fill="#fff" class="logo" d="M1874 4171 c-56 -34 -82 -95 -76 -183 3 -45 18 -32 31 27 7 30 17 58
   23 61 8 5 9 1 4 -11 -4 -11 -10 -39 -13 -63 -6 -41 -5 -44 13 -34 47 25 59 51
   64 138 3 53 1 84 -5 84 -5 0 -24 -9 -41 -19z"/>
   <path fill="#fff" class="logo" d="M2113 4130 c-9 -25 -17 -30 -45 -30 l-33 -1 28 -23 c25 -20 27 -26
   17 -50 -14 -39 -13 -40 15 -22 31 20 44 20 67 -1 24 -22 32 -12 16 22 -11 25
   -10 29 17 51 l30 24 -33 0 c-28 0 -36 5 -45 30 -6 17 -14 30 -17 30 -3 0 -11
   -13 -17 -30z"/>
   <path fill="#fff" class="logo" d="M2683 4130 c-9 -25 -17 -30 -45 -30 l-33 -1 28 -23 c25 -20 27 -26
   17 -50 -14 -39 -13 -40 15 -22 31 20 44 20 67 -1 24 -22 32 -12 16 22 -11 25
   -10 29 17 51 l30 24 -33 0 c-28 0 -36 5 -45 30 -6 17 -14 30 -17 30 -3 0 -11
   -13 -17 -30z"/>
   <path fill="#fff" class="logo" d="M1695 4101 c-62 -37 -96 -126 -76 -198 7 -24 16 -43 21 -43 6 0 10
   19 11 43 0 23 5 51 10 62 6 14 7 2 3 -37 -3 -32 -1 -58 3 -58 15 0 61 53 72
   83 8 19 7 43 0 78 -6 28 -9 59 -6 70 6 24 0 24 -38 0z"/>
   <path fill="#fff" class="logo" d="M3140 4098 c0 -13 -3 -53 -6 -89 -6 -64 -6 -66 27 -104 l34 -39 -39
   22 c-76 45 -44 14 57 -53 134 -91 321 -276 406 -404 116 -175 195 -370 238
   -586 13 -67 17 -138 17 -275 0 -200 -16 -307 -68 -455 l-25 -70 0 48 c-1 59
   -17 90 -71 142 -23 22 -48 53 -55 69 l-13 30 -21 -42 c-32 -62 -29 -152 7
   -216 26 -47 96 -115 107 -104 3 3 -6 25 -20 49 -28 51 -57 130 -51 137 3 2 12
   -13 21 -34 9 -21 29 -60 46 -85 l29 -46 -24 -55 c-13 -30 -33 -68 -43 -85
   l-18 -30 0 66 c0 64 -2 69 -47 130 -27 35 -48 72 -48 82 0 36 -19 19 -51 -46
   -28 -57 -31 -72 -26 -123 6 -70 34 -128 81 -170 l35 -31 -44 -58 c-83 -108
   -88 -113 -60 -59 35 68 34 127 -5 199 -16 31 -30 70 -30 87 0 40 -12 38 -54
   -11 -73 -86 -85 -190 -33 -290 17 -34 38 -65 46 -67 11 -4 12 0 6 14 -4 11 -9
   64 -11 119 -1 55 0 84 2 65 8 -70 26 -155 35 -166 22 -27 -262 -254 -413 -330
   -97 -49 -217 -92 -359 -129 -79 -20 -171 -48 -205 -62 l-62 -24 -39 20 c-22
   10 -109 38 -195 60 -190 49 -259 75 -398 147 -114 59 -236 146 -337 241 l-63
   58 15 60 c8 33 15 80 15 105 1 38 2 42 12 26 10 -19 7 -103 -8 -175 -9 -45 7
   -35 42 25 32 54 42 144 24 209 -7 25 -30 65 -52 90 -43 48 -59 57 -51 25 3
   -11 -10 -49 -28 -87 -42 -83 -45 -149 -11 -209 l22 -39 -32 36 c-49 55 -101
   129 -89 129 17 0 74 64 92 105 29 63 25 158 -9 219 -31 56 -52 70 -52 34 0
   -14 -20 -50 -45 -82 -47 -62 -61 -104 -50 -158 7 -33 7 -33 -10 -10 -9 12 -29
   50 -44 84 l-28 61 28 43 c16 23 38 62 50 86 16 35 19 37 14 13 -3 -16 -20 -60
   -38 -97 -19 -38 -30 -68 -25 -68 17 0 90 76 111 114 28 54 29 146 3 204 -20
   44 -36 55 -36 24 0 -10 -21 -38 -46 -62 -62 -60 -88 -118 -80 -179 l6 -46 -16
   40 c-31 82 -63 219 -80 345 -15 112 -15 149 -5 272 20 250 76 441 187 639 99
   177 225 325 392 457 45 36 82 67 82 69 0 6 -118 -76 -125 -87 -3 -5 -11 -10
   -16 -10 -6 0 0 13 14 30 38 45 42 80 17 155 -12 35 -19 69 -15 75 16 25 -16 6
   -48 -29 -61 -67 -71 -148 -29 -225 l17 -31 6 80 c4 66 6 71 7 27 1 -29 6 -62
   12 -72 8 -16 1 -27 -49 -70 -50 -43 -108 -107 -200 -220 l-21 -25 15 37 c21
   53 18 97 -10 143 -27 45 -41 71 -49 99 -8 25 -29 8 -55 -48 -39 -80 -19 -189
   44 -246 25 -22 27 -23 21 -5 -10 27 -36 146 -35 165 0 8 11 -21 24 -65 13 -44
   28 -81 34 -83 6 -2 -5 -27 -23 -55 -18 -29 -42 -67 -53 -85 l-20 -34 5 50 c6
   70 -2 94 -51 150 -23 27 -47 57 -54 68 -10 17 -13 15 -32 -26 -26 -56 -27
   -132 -2 -185 17 -38 76 -105 92 -105 4 0 -3 24 -16 53 -13 28 -26 68 -30 87
   -5 26 3 16 29 -38 20 -40 40 -71 45 -67 5 3 -6 -32 -25 -77 -19 -46 -39 -92
   -43 -103 -6 -14 -9 -3 -9 37 1 69 -22 110 -87 157 -26 18 -50 43 -54 54 -8 21
   -8 21 -20 -2 -19 -34 -25 -123 -12 -164 17 -50 65 -114 102 -132 36 -19 49
   -13 27 12 -21 24 -81 144 -74 150 2 3 12 -10 22 -29 29 -57 77 -118 87 -111 6
   4 8 0 4 -11 -8 -21 -44 -161 -50 -196 -3 -15 -5 -7 -6 20 -3 76 -30 121 -102
   167 -36 22 -71 48 -78 57 -21 25 -31 3 -31 -70 0 -104 57 -189 155 -230 19 -8
   35 -12 35 -8 0 3 -18 27 -41 52 -23 26 -50 65 -60 87 l-20 40 33 -40 c18 -22
   49 -56 70 -76 l37 -35 -10 -95 c-11 -103 -17 -130 -18 -84 -1 17 -11 48 -24
   70 -18 33 -37 47 -103 80 -45 22 -89 46 -98 54 -14 12 -16 8 -16 -45 1 -126
   83 -227 204 -250 l39 -7 -77 73 c-85 81 -105 118 -25 46 29 -26 65 -54 80 -63
   24 -14 29 -24 29 -55 0 -50 28 -247 46 -325 41 -178 142 -392 256 -545 85
   -114 137 -169 249 -263 180 -151 365 -244 624 -315 83 -23 174 -52 203 -67
   l53 -25 -55 -52 c-44 -40 -56 -58 -56 -81 0 -65 15 -63 85 13 37 40 71 72 77
   72 18 0 77 -52 115 -101 40 -53 53 -50 55 13 1 27 -8 41 -55 84 l-57 51 68 31
   c37 17 119 44 182 60 161 42 270 84 382 146 346 191 596 487 717 851 63 188
   74 267 76 518 l1 218 53 52 c61 60 52 29 -12 -40 -22 -24 -38 -46 -35 -49 14
   -13 92 33 132 77 52 58 71 117 63 195 -3 31 -8 58 -10 60 -2 3 -20 -10 -39
   -28 -19 -18 -53 -44 -76 -58 -51 -30 -72 -59 -88 -125 -7 -30 -13 -40 -13 -25
   -1 14 -10 56 -20 93 l-20 67 26 28 c14 15 31 39 39 55 14 26 24 35 24 19 0 -4
   -16 -32 -35 -61 -20 -30 -34 -58 -33 -63 2 -5 26 5 53 24 66 44 100 110 100
   193 0 57 -19 125 -35 125 -4 0 -10 -10 -14 -23 -3 -12 -27 -39 -55 -60 -57
   -44 -81 -87 -81 -149 l-1 -43 -27 65 -28 65 47 43 c69 62 93 145 69 234 -13
   44 -49 93 -50 66 0 -10 -22 -43 -50 -73 -55 -61 -65 -86 -57 -152 l5 -45 -23
   40 c-13 22 -37 61 -54 86 -18 25 -25 43 -18 40 11 -4 20 14 36 68 16 56 19 63
   15 28 -4 -25 -12 -63 -20 -85 -7 -21 -11 -41 -9 -44 11 -10 55 44 75 92 28 63
   22 129 -15 193 -25 43 -45 57 -45 32 0 -7 -16 -39 -36 -70 -44 -72 -51 -112
   -29 -163 18 -45 16 -44 -51 40 l-49 60 12 55 13 55 -4 -65 -4 -65 23 28 c61
   69 58 182 -6 260 -35 43 -49 47 -49 13 0 -13 -11 -48 -25 -78 -31 -66 -31 -83
   0 -143 l24 -49 -67 67 c-64 64 -68 69 -63 105 l6 37 3 -42 c2 -24 7 -43 11
   -43 17 0 46 86 45 131 -2 55 -24 101 -67 141 -37 33 -51 36 -42 9 3 -11 -4
   -47 -15 -81 -23 -69 -18 -104 23 -156 16 -21 4 -15 -44 21 -63 48 -65 51 -52
   75 17 33 17 112 -1 153 -13 32 -78 97 -96 97 -6 0 -10 -10 -10 -22z m81 -191
   c2 -25 0 -50 -4 -53 -4 -4 -7 19 -7 51 0 69 8 70 11 2z m605 -584 c-25 -70
   -47 -107 -56 -93 -5 8 -1 21 11 33 10 11 26 40 35 64 21 54 29 51 10 -4z"/>
   <path fill="#fff" class="logo" d="M2961 3909 c-13 -5 -36 -18 -51 -29 -15 -11 -36 -20 -45 -20 -26 0
   -12 -23 26 -42 61 -31 141 -17 184 32 l20 23 -25 -7 c-56 -14 -75 -16 -43 -4
   18 7 33 18 34 23 1 16 -73 33 -100 24z"/>
   <path fill="#fff" class="logo" d="M1832 3899 c-31 -12 -22 -24 33 -39 25 -7 44 -15 42 -17 -5 -4 -71
   10 -102 22 -18 7 -17 5 4 -18 45 -50 130 -59 188 -22 l25 17 -54 34 c-54 34
   -93 41 -136 23z"/>
   <path fill="#fff" class="logo" d="M1329 3873 c-63 -66 -77 -159 -38 -240 11 -24 24 -43 27 -43 4 0 6
   39 5 87 l-2 88 12 -75 c7 -41 16 -75 22 -75 15 0 55 77 55 105 0 14 -10 45
   -22 70 -11 25 -23 60 -27 78 l-6 33 -26 -28z"/>
   <path fill="#fff" class="logo" d="M3105 3815 c-20 -8 -42 -18 -48 -24 -6 -6 -21 -11 -34 -11 -30 0 -29
   -14 3 -39 56 -44 136 -46 197 -6 35 22 34 35 0 31 -16 -2 -21 -1 -13 1 29 9
   32 21 10 33 -44 24 -76 28 -115 15z m68 -62 c-7 -2 -19 -2 -25 0 -7 3 -2 5 12
   5 14 0 19 -2 13 -5z"/>
   <path fill="#fff" class="logo" d="M1667 3804 c-35 -19 -31 -23 35 -40 41 -9 46 -12 23 -13 -17 -1 -45
   3 -63 8 -42 12 -42 -3 1 -29 55 -34 140 -26 190 18 16 14 14 17 -38 44 -62 31
   -106 35 -148 12z"/>
   <path fill="#fff" class="logo" d="M8520 3763 c-287 -48 -442 -329 -349 -634 36 -117 128 -210 242 -244
   72 -22 201 -29 271 -16 177 33 305 158 352 344 22 85 15 231 -16 310 -45 118
   -163 211 -300 237 -52 10 -151 11 -200 3z m165 -82 c80 -37 126 -112 146 -242
   15 -95 6 -278 -16 -346 -35 -103 -112 -163 -210 -163 -162 0 -248 138 -249
   400 0 188 50 306 148 351 52 24 130 24 181 0z"/>
   <path fill="#fff" class="logo" d="M12357 3738 c-59 -140 -277 -621 -315 -693 -43 -83 -50 -91 -89 -105
   -34 -11 -43 -19 -43 -37 0 -23 1 -23 150 -23 l150 0 0 24 c0 20 -7 25 -45 35
   -56 14 -57 27 -13 134 l32 77 151 0 152 0 33 -86 c38 -98 35 -113 -24 -127
   -29 -7 -36 -14 -36 -33 l0 -24 210 0 210 0 0 24 c0 19 -8 27 -37 37 -54 17
   -60 24 -104 112 -40 79 -241 524 -294 650 -23 56 -32 67 -51 67 -17 0 -28 -9
   -37 -32z m45 -383 l55 -130 -115 -3 c-63 -1 -117 0 -120 2 -2 3 22 66 53 141
   32 74 62 132 66 128 4 -5 32 -66 61 -138z"/>
   <path fill="#fff" class="logo" d="M4640 3723 c0 -18 9 -23 55 -33 30 -6 58 -17 62 -23 5 -7 10 -147 13
   -312 5 -289 6 -302 28 -347 42 -85 132 -132 277 -145 208 -17 364 74 394 230
   5 28 12 167 16 306 3 151 10 260 16 267 6 7 35 18 65 24 45 10 54 15 54 33 0
   22 -2 22 -175 22 -172 0 -175 0 -175 -22 0 -17 9 -23 50 -33 27 -6 54 -18 60
   -25 16 -20 25 -402 11 -499 -20 -138 -69 -186 -201 -194 -93 -5 -153 16 -194
   71 -39 50 -48 136 -44 399 3 246 -2 230 86 248 43 10 52 15 52 33 0 22 -1 22
   -225 22 -224 0 -225 0 -225 -22z"/>
   <path fill="#fff" class="logo" d="M5670 3726 c0 -22 7 -26 54 -36 98 -20 91 8 88 -372 -4 -382 -2 -373
   -82 -384 -44 -6 -50 -9 -50 -30 l0 -24 175 0 175 0 0 24 c0 21 -6 25 -50 31
   -28 4 -57 13 -64 21 -11 10 -15 81 -21 307 -4 162 -6 300 -3 307 4 13 472
   -555 583 -708 1 -1 14 2 29 7 l26 11 0 374 c0 211 4 386 9 400 8 19 21 27 65
   36 49 10 56 14 56 36 l0 24 -175 0 -175 0 0 -24 c0 -22 6 -26 45 -32 88 -13
   88 -12 93 -250 2 -115 3 -218 1 -228 -4 -18 -100 95 -393 462 l-58 72 -164 0
   -164 0 0 -24z"/>
   <path fill="#fff" class="logo" d="M6740 3724 c0 -18 8 -22 50 -28 94 -12 90 3 90 -379 0 -251 -3 -337
   -12 -349 -7 -9 -39 -21 -70 -28 -49 -10 -58 -15 -58 -33 0 -22 0 -22 230 -22
   227 0 230 0 230 21 0 17 -10 23 -54 33 -30 7 -60 19 -68 28 -10 13 -13 88 -13
   355 0 386 -6 362 87 374 40 6 48 10 48 28 0 21 -2 21 -230 21 -228 0 -230 0
   -230 -21z"/>
   <path fill="#fff" class="logo" d="M7270 3724 c0 -18 10 -24 57 -35 44 -11 61 -20 70 -39 19 -36 14
   -660 -5 -683 -8 -9 -38 -21 -68 -27 -45 -10 -54 -15 -54 -33 0 -22 0 -22 240
   -22 238 0 240 0 240 21 0 17 -8 23 -42 28 -73 11 -106 25 -112 49 -3 12 -6 81
   -6 152 l0 130 103 0 c92 0 108 3 159 28 94 46 148 132 148 237 0 93 -39 161
   -109 193 -43 20 -64 21 -333 22 -288 0 -288 0 -288 -21z m471 -67 c48 -32 64
   -70 64 -152 0 -118 -53 -175 -162 -175 l-53 0 0 168 c0 93 3 172 7 175 3 4 30
   7 58 7 38 0 61 -6 86 -23z"/>
   <path fill="#fff" class="logo" d="M9160 3724 c0 -18 10 -24 57 -35 44 -11 61 -20 70 -39 19 -36 14
   -660 -5 -683 -8 -9 -38 -21 -68 -27 -45 -10 -54 -15 -54 -33 0 -22 0 -22 240
   -22 238 0 240 0 240 21 0 17 -8 23 -42 28 -73 11 -106 25 -112 49 -3 12 -6 81
   -6 152 l0 130 103 0 c92 0 108 3 159 28 94 46 148 132 148 237 0 93 -39 161
   -109 193 -43 20 -64 21 -333 22 -288 0 -288 0 -288 -21z m471 -67 c48 -32 64
   -70 64 -152 0 -118 -53 -175 -162 -175 l-53 0 0 168 c0 93 3 172 7 175 3 4 30
   7 58 7 38 0 61 -6 86 -23z"/>
   <path fill="#fff" class="logo" d="M9990 3723 c0 -18 9 -23 55 -33 30 -6 58 -17 62 -23 5 -7 10 -147 13
   -312 5 -289 6 -302 28 -347 42 -85 132 -132 277 -145 208 -17 364 74 394 230
   5 28 12 167 16 306 3 151 10 260 16 267 6 7 35 18 65 24 45 10 54 15 54 33 0
   22 -2 22 -175 22 -172 0 -175 0 -175 -22 0 -17 9 -23 50 -33 27 -6 54 -18 60
   -25 16 -20 25 -402 11 -499 -20 -138 -69 -186 -201 -194 -93 -5 -153 16 -194
   71 -39 50 -48 136 -44 399 3 246 -2 230 86 248 43 10 52 15 52 33 0 22 -1 22
   -225 22 -224 0 -225 0 -225 -22z"/>
   <path fill="#fff" class="logo" d="M11030 3723 c0 -18 9 -23 52 -32 28 -7 58 -16 65 -23 19 -15 19 -691
   1 -705 -7 -6 -37 -16 -65 -23 -44 -10 -53 -16 -53 -33 l0 -22 361 0 361 1 39
   114 c21 63 38 116 39 118 0 1 -11 2 -25 2 -19 0 -34 -15 -71 -70 -25 -39 -59
   -77 -75 -85 -21 -11 -65 -15 -169 -15 l-140 0 0 346 c0 208 4 353 10 364 7 13
   30 22 80 30 61 10 70 14 70 33 0 22 -1 22 -240 22 -240 0 -240 0 -240 -22z"/>
   <path fill="#fff" class="logo" d="M12942 3726 c2 -15 17 -23 57 -32 29 -6 57 -18 62 -25 5 -8 9 -168 9
   -355 0 -271 -3 -344 -13 -352 -7 -7 -37 -16 -65 -23 -43 -9 -52 -14 -52 -32 0
   -22 1 -22 225 -22 224 0 225 0 225 22 0 18 -9 23 -54 33 -30 6 -60 18 -67 26
   -9 11 -14 64 -17 165 l-4 149 41 0 42 0 78 -162 c42 -90 83 -178 92 -197 l15
   -34 167 -1 c163 -1 167 -1 167 20 0 17 -11 24 -62 38 -76 21 -88 33 -198 215
   l-88 145 42 27 c52 32 84 75 102 136 25 83 12 151 -39 210 -57 64 -69 67 -385
   67 -274 1 -283 0 -280 -18z m455 -66 c45 -27 66 -73 67 -146 0 -108 -55 -164
   -161 -164 l-53 0 0 159 c0 118 3 161 13 164 31 13 104 6 134 -13z"/>
   <path fill="#fff" class="logo" d="M1555 3704 c-21 -7 -45 -20 -53 -28 -19 -19 -9 -24 63 -29 43 -3 41
   -4 -17 -5 -75 -2 -85 -12 -35 -33 67 -29 177 -3 206 49 8 14 2 19 -32 30 -23
   7 -54 17 -68 21 -16 6 -40 4 -64 -5z"/>
   <path fill="#fff" class="logo" d="M3216 3699 c-27 -11 -55 -18 -63 -15 -21 9 -15 -13 12 -40 56 -56
   131 -67 205 -32 l45 22 -50 6 c-46 6 -47 7 -12 8 50 2 45 20 -13 50 -53 26
   -61 27 -124 1z"/>
   <path fill="#fff" class="logo" d="M2188 3521 c-126 -47 -228 -88 -228 -91 0 -3 30 -17 68 -30 69 -26
   84 -45 67 -88 -3 -9 -7 -81 -9 -160 l-2 -143 25 3 c19 2 25 8 24 23 -13 105
   -14 226 -4 239 8 10 9 16 1 21 -5 3 -10 20 -10 37 0 27 3 30 23 24 12 -3 25
   -6 30 -6 4 0 7 -29 7 -65 0 -62 1 -66 27 -76 29 -11 447 -9 458 3 4 3 8 32 10
   65 3 32 4 60 5 63 0 3 50 23 110 45 60 22 110 42 110 45 0 6 -465 180 -477
   179 -4 -1 -110 -40 -235 -88z"/>
   <path fill="#fff" class="logo" d="M1388 3555 c-21 -14 -38 -30 -38 -35 0 -6 28 -10 63 -11 73 -1 44
   -16 -38 -19 l-50 -2 40 -19 c22 -10 54 -18 70 -19 44 0 107 32 139 71 l29 34
   -44 8 c-119 20 -132 20 -171 -8z"/>
   <path fill="#fff" class="logo" d="M3341 3568 c-19 -5 -43 -7 -53 -5 -25 7 -23 -6 9 -44 55 -64 144 -85
   218 -50 l40 19 -35 2 c-19 1 -53 5 -75 10 -39 9 -39 9 10 5 73 -7 84 5 40 43
   -39 35 -84 40 -154 20z"/>
   <path fill="#fff" class="logo" d="M3390 3430 c0 -21 30 -68 59 -93 43 -35 95 -50 153 -44 73 9 80 20
   23 33 -49 12 -50 12 -12 13 43 1 44 3 17 41 -28 40 -70 54 -144 48 -35 -3 -70
   -1 -80 4 -10 6 -16 5 -16 -2z m177 -86 c-3 -3 -12 -4 -19 -1 -8 3 -5 6 6 6 11
   1 17 -2 13 -5z"/>
   <path fill="#fff" class="logo" d="M1283 3411 c-29 -18 -53 -48 -53 -67 0 -7 85 2 118 12 16 5 16 5 0
   -5 -9 -6 -45 -17 -80 -25 l-63 -13 44 -12 c80 -23 161 8 208 78 13 19 23 37
   23 40 0 3 -37 7 -83 9 -67 2 -88 -1 -114 -17z"/>
   <path fill="#fff" class="logo" d="M3490 3280 c0 -21 31 -85 53 -108 38 -41 91 -62 157 -62 33 0 60 4
   60 8 0 5 -19 15 -42 21 -24 7 -54 20 -68 28 -16 9 -18 12 -5 7 49 -16 96 -26
   102 -21 9 9 -29 68 -59 90 -19 14 -50 22 -100 26 -40 4 -79 10 -85 14 -8 5
   -13 4 -13 -3z"/>
   <path fill="#fff" class="logo" d="M1291 3270 c-48 -5 -83 -15 -100 -28 -27 -20 -67 -79 -59 -88 3 -2
   33 4 67 15 33 10 61 17 61 14 0 -7 -105 -53 -123 -53 -11 0 -15 -5 -11 -11 4
   -7 29 -10 65 -7 88 6 159 62 184 146 3 12 3 21 -2 21 -4 -1 -41 -5 -82 -9z"/>
   <path fill="#fff" class="logo" d="M2190 3111 c-5 -11 -10 -28 -10 -38 0 -22 -61 -135 -127 -236 -62
   -96 -193 -267 -204 -267 -25 0 -2 -42 55 -102 88 -92 151 -192 251 -393 84
   -170 209 -474 223 -542 4 -20 13 -38 20 -41 9 -3 12 106 12 492 l0 495 -29 17
   c-71 42 -66 135 9 169 67 30 130 -9 130 -81 0 -57 -7 -72 -41 -90 l-29 -15 0
   -495 c0 -382 3 -495 12 -492 7 3 16 20 21 39 11 46 86 242 137 359 117 271
   232 468 333 575 40 42 57 67 57 86 0 15 -4 29 -8 31 -16 6 -179 226 -222 299
   -8 14 -28 47 -45 74 -16 27 -39 76 -50 109 l-21 61 -231 3 c-221 2 -233 1
   -243 -17z"/>
   <path fill="#fff" class="logo" d="M1283 3109 c-5 -5 -41 -17 -78 -24 -47 -10 -77 -23 -96 -41 -30 -29
   -56 -81 -45 -91 4 -4 37 8 74 25 65 31 66 32 37 6 -16 -14 -52 -36 -78 -49
   -52 -25 -44 -40 16 -28 85 16 156 81 177 160 12 48 10 59 -7 42z"/>
   <path fill="#fff" class="logo" d="M3570 3113 c0 -5 7 -32 15 -59 14 -49 64 -109 111 -132 28 -15 124
   -27 124 -16 0 5 -19 19 -42 32 -24 12 -56 33 -73 47 -27 23 -25 22 20 -4 92
   -54 115 -49 80 18 -24 47 -70 79 -123 86 -40 5 -61 12 -104 33 -5 2 -8 0 -8
   -5z"/>
   <path fill="#fff" class="logo" d="M3630 2908 c0 -57 19 -104 60 -151 42 -48 109 -81 151 -75 22 3 20 6
   -21 34 -25 18 -56 44 -70 59 -20 21 -12 18 34 -14 33 -22 63 -41 68 -41 14 0
   8 43 -12 88 -16 35 -29 47 -72 67 -29 14 -60 25 -69 25 -9 0 -24 9 -34 20 -26
   28 -35 25 -35 -12z"/>
   <path fill="#fff" class="logo" d="M1210 2916 c-8 -7 -40 -22 -70 -31 -30 -10 -67 -30 -82 -45 -24 -25
   -56 -106 -45 -117 8 -7 47 15 96 55 24 20 42 29 39 21 -5 -15 -97 -93 -119
   -101 -8 -3 -11 -9 -7 -13 3 -4 31 0 61 9 89 26 157 116 157 209 0 30 -8 34
   -30 13z"/>
   <path fill="#fff" class="logo" d="M4155 2834 c-6 -8 -48 -34 -95 -57 -75 -37 -87 -47 -108 -88 -15 -31
   -22 -59 -20 -84 l3 -37 37 29 c20 15 56 44 80 63 l43 35 -34 -43 c-19 -24 -53
   -58 -77 -75 -66 -49 -56 -60 28 -31 52 17 118 79 145 133 18 38 31 171 17 171
   -5 0 -14 -7 -19 -16z"/>
   <path fill="#fff" class="logo" d="M3665 2742 c-3 -3 -5 -31 -5 -62 0 -107 77 -210 170 -226 l35 -6 -30
   25 c-16 13 -45 47 -64 73 l-35 49 57 -52 c30 -29 61 -53 66 -53 17 0 12 61 -9
   107 -14 33 -31 49 -71 70 -29 15 -65 40 -81 54 -15 15 -30 24 -33 21z"/>
   <path fill="#fff" class="logo" d="M1185 2724 c-6 -8 -37 -30 -70 -47 -73 -39 -105 -83 -105 -143 0 -24
   3 -44 7 -44 4 0 34 26 66 58 71 68 58 33 -16 -45 -52 -56 -47 -69 16 -37 90
   45 145 147 130 240 -6 37 -13 42 -28 18z"/>
   <path fill="#fff" class="logo" d="M673 2519 c3 -31 13 -71 21 -88 45 -86 140 -151 224 -151 l44 0 -74
   49 c-69 46 -120 91 -104 91 4 0 26 -13 49 -29 23 -15 61 -38 85 -50 40 -20 42
   -20 42 -3 0 30 -53 124 -80 144 -14 10 -60 26 -103 37 -45 11 -85 27 -94 38
   -13 16 -14 13 -10 -38z"/>
   <path fill="#fff" class="logo" d="M4177 2545 c-10 -7 -51 -21 -90 -30 -60 -15 -79 -25 -113 -60 -41
   -43 -75 -125 -50 -125 11 0 83 38 141 75 30 18 29 18 -5 -18 -19 -20 -62 -52
   -94 -71 l-60 -36 45 0 c124 0 259 135 247 247 -3 29 -5 30 -21 18z"/>
   <path fill="#fff" class="logo" d="M1190 2527 c0 -9 -24 -34 -54 -56 -91 -68 -117 -117 -101 -198 l7
   -38 25 30 c13 17 40 52 59 80 19 27 34 46 34 42 0 -16 -50 -105 -76 -136 -31
   -38 -27 -48 13 -28 90 48 145 163 124 257 -10 45 -31 77 -31 47z"/>
   <path fill="#fff" class="logo" d="M3661 2510 c-31 -91 7 -207 87 -267 61 -46 82 -43 44 5 -16 20 -41
   62 -56 92 -14 30 -18 44 -9 30 47 -64 94 -120 103 -120 16 0 11 99 -6 136 -10
   20 -41 52 -73 75 -31 22 -61 50 -67 61 -11 20 -12 19 -23 -12z"/>
   <path fill="#fff" class="logo" d="M4165 2264 c-11 -7 -58 -18 -103 -23 -102 -11 -146 -37 -186 -110
   -15 -29 -26 -54 -24 -57 6 -6 105 29 157 55 24 13 45 20 48 18 7 -8 -108 -76
   -159 -95 -27 -9 -48 -20 -48 -24 0 -5 28 -8 63 -8 119 0 230 83 263 197 9 30
   14 56 12 58 -1 1 -12 -3 -23 -11z"/>
   <path fill="#fff" class="logo" d="M690 2248 c1 -32 31 -96 65 -136 47 -56 108 -85 190 -90 47 -3 75 -1
   79 7 4 6 1 11 -7 11 -22 0 -172 77 -188 96 -10 13 -3 11 31 -6 57 -29 152 -62
   159 -54 11 11 -45 98 -81 127 -31 25 -50 31 -124 39 -48 5 -96 14 -106 19 -15
   8 -18 6 -18 -13z"/>
   <path fill="#fff" class="logo" d="M9130 2243 c-19 -2 -45 -6 -57 -8 l-23 -5 0 -415 0 -415 55 0 55 0 0
   185 0 185 68 0 c89 -1 144 -25 171 -77 11 -22 32 -89 46 -149 36 -147 34 -144
   101 -144 49 0 54 2 46 18 -6 9 -24 73 -41 142 -36 141 -62 195 -108 226 l-33
   22 30 12 c44 18 107 92 120 141 24 88 -11 190 -80 235 -69 46 -197 63 -350 47z
   m249 -100 c78 -39 106 -142 58 -214 -36 -55 -96 -79 -194 -79 l-83 0 0 154 0
   155 28 4 c49 9 154 -2 191 -20z"/>
   <path fill="#fff" class="logo" d="M10087 2240 c-110 -28 -187 -120 -187 -223 0 -94 82 -176 240 -237
   95 -37 140 -88 140 -157 0 -121 -139 -175 -302 -120 l-68 23 -11 -33 c-6 -19
   -8 -40 -6 -47 18 -46 258 -69 341 -32 120 51 179 164 146 280 -21 76 -59 111
   -194 175 -139 67 -176 100 -176 159 0 110 124 163 266 114 l52 -18 11 37 c6
   20 11 39 11 43 0 29 -189 54 -263 36z"/>
   <path fill="#fff" class="logo" d="M11325 2243 c-16 -2 -45 -6 -62 -9 l-33 -5 0 -414 0 -413 87 -7 c221
   -19 391 25 490 124 83 85 118 194 111 350 -3 78 -9 107 -31 156 -54 116 -146
   184 -284 211 -68 13 -203 16 -278 7z m282 -98 c125 -37 194 -135 201 -286 8
   -167 -52 -285 -176 -346 -51 -25 -70 -28 -174 -32 l-118 -3 0 334 c0 184 3
   338 7 341 13 13 209 7 260 -8z"/>
   <path fill="#fff" class="logo" d="M13305 2243 c-16 -2 -45 -6 -62 -9 l-33 -5 0 -414 0 -413 87 -7 c221
   -19 391 25 490 124 83 85 118 194 111 350 -3 78 -9 107 -31 156 -54 116 -146
   184 -284 211 -68 13 -203 16 -278 7z m282 -98 c125 -37 194 -135 201 -286 8
   -167 -52 -285 -176 -346 -51 -25 -70 -28 -174 -32 l-118 -3 0 334 c0 184 3
   338 7 341 13 13 209 7 260 -8z"/>
   <path fill="#fff" class="logo" d="M4802 1938 c5 -349 9 -374 83 -456 53 -58 103 -81 196 -89 147 -12
   271 59 320 185 22 54 23 74 27 360 l4 302 -55 0 -56 0 -3 -302 c-3 -295 -4
   -304 -27 -351 -32 -65 -85 -100 -160 -105 -109 -8 -186 50 -210 158 -6 25 -11
   170 -11 323 l0 277 -56 0 -56 0 4 -302z"/>
   <path fill="#fff" class="logo" d="M5820 1820 l0 -420 51 0 51 0 -4 350 c-2 193 -3 350 -1 350 1 0 21
   -36 44 -81 23 -44 117 -200 209 -347 l168 -267 56 -3 56 -3 0 421 0 420 -51 0
   -51 0 4 -343 3 -344 -58 105 c-32 57 -126 211 -210 343 l-152 239 -57 0 -58 0
   0 -420z"/>
   <path fill="#fff" class="logo" d="M6840 1820 l0 -420 55 0 55 0 0 420 0 420 -55 0 -55 0 0 -420z"/>
   <path fill="#fff" class="logo" d="M7251 2228 c0 -7 60 -195 133 -418 l133 -405 60 -3 60 -3 123 343
   c67 189 135 378 151 421 l28 77 -57 0 -57 0 -92 -267 c-51 -148 -105 -311
   -121 -363 l-29 -95 -17 60 c-24 84 -78 259 -147 478 l-60 187 -55 0 c-37 0
   -54 -4 -53 -12z"/>
   <path fill="#fff" class="logo" d="M8230 1820 l0 -420 235 0 235 0 0 45 0 45 -180 0 -180 0 0 155 0 155
   165 0 165 0 0 45 0 45 -165 0 -165 0 0 130 0 130 170 0 170 0 0 45 0 45 -225
   0 -225 0 0 -420z"/>
   <path fill="#fff" class="logo" d="M10740 1820 l0 -420 55 0 55 0 0 420 0 420 -55 0 -55 0 0 -420z"/>
   <path fill="#fff" class="logo" d="M12469 2213 c-10 -26 -111 -320 -229 -671 l-49 -143 56 3 56 3 45
   133 44 132 148 0 148 0 44 -132 45 -133 56 -3 c31 -2 57 0 57 3 0 3 -64 192
   -142 420 l-141 415 -64 0 c-60 0 -64 -1 -74 -27z m81 -101 c0 -9 26 -95 58
   -189 l59 -173 -128 0 -127 0 59 178 c32 97 59 185 59 195 0 10 5 15 10 12 6
   -3 10 -14 10 -23z"/>
   <path fill="#fff" class="logo" d="M762 1948 c36 -108 148 -188 265 -188 34 0 74 5 90 11 l28 12 -35 9
   c-69 19 -178 59 -196 73 -12 9 10 5 56 -9 85 -27 160 -40 160 -29 -1 22 -75
   105 -111 123 -33 17 -56 21 -132 19 -51 -1 -102 1 -114 5 -21 7 -22 6 -11 -26z"/>
   <path fill="#fff" class="logo" d="M4096 1973 c-4 -4 -48 -6 -97 -5 -115 4 -148 -7 -204 -70 -56 -63
   -58 -79 -7 -71 34 6 131 31 177 47 11 4 -1 -4 -27 -18 -26 -14 -84 -37 -130
   -50 -99 -29 -88 -41 37 -41 85 0 141 20 193 68 41 38 96 147 74 147 -5 0 -12
   -3 -16 -7z"/>
   <path fill="#fff" class="logo" d="M1538 1717 c2 -19 -3 -58 -12 -87 -21 -70 -20 -113 3 -158 20 -39 67
   -92 82 -92 11 0 11 121 0 177 -5 23 -5 40 -1 38 11 -7 30 -113 33 -185 l2 -65
   25 45 c36 65 35 165 -2 236 -26 50 -100 124 -123 124 -7 0 -9 -13 -7 -33z"/>
   <path fill="#fff" class="logo" d="M3278 1717 c-94 -72 -128 -214 -77 -323 l23 -49 7 85 c5 47 13 99 19
   115 8 25 9 19 5 -34 -3 -34 -2 -81 1 -103 l7 -39 33 32 c65 63 80 137 48 246
   -9 30 -13 65 -10 79 8 32 -4 30 -56 -9z"/>
   <path fill="#fff" class="logo" d="M990 1688 c-56 -14 -80 -17 -97 -9 -30 14 -29 3 5 -47 80 -120 237
   -163 369 -101 l48 22 -90 8 c-49 5 -110 14 -135 22 -42 12 -38 13 73 9 68 -3
   117 -1 117 5 0 17 -75 82 -112 98 -48 19 -85 18 -178 -7z"/>
   <path fill="#fff" class="logo" d="M3704 1696 c-36 -16 -114 -83 -114 -98 0 -7 42 -9 118 -6 110 4 114
   3 72 -9 -25 -8 -85 -17 -134 -20 l-89 -6 48 -25 c125 -63 283 -24 365 90 37
   51 40 72 6 57 -18 -8 -40 -6 -98 10 -86 24 -130 26 -174 7z"/>
   <path fill="#fff" class="logo" d="M1721 1578 c8 -14 9 -48 5 -97 -7 -92 5 -139 46 -187 26 -29 75 -64
   91 -64 7 0 -11 102 -27 155 -9 27 -14 50 -12 52 7 7 56 -116 67 -166 7 -35 14
   -50 21 -43 15 15 21 123 9 168 -23 86 -104 172 -182 194 -27 8 -28 7 -18 -12z"/>
   <path fill="#fff" class="logo" d="M3110 1579 c-97 -43 -162 -141 -164 -244 -2 -105 26 -157 37 -71 7
   46 53 173 67 181 5 3 0 -22 -10 -55 -24 -78 -35 -160 -22 -160 5 0 33 20 60
   45 63 56 76 94 70 194 -3 42 -1 87 4 100 5 13 7 25 6 27 -2 1 -24 -6 -48 -17z"/>
   <path fill="#fff" class="logo" d="M1939 1448 c10 -18 22 -62 25 -98 9 -83 37 -141 84 -173 41 -29 92
   -50 100 -43 7 7 -24 89 -59 156 l-28 55 30 -35 c17 -19 48 -71 69 -114 l38
   -79 6 39 c9 52 -16 144 -53 198 -43 63 -103 98 -203 120 l-27 6 18 -32z"/>
   <path fill="#fff" class="logo" d="M2897 1469 c-94 -22 -182 -99 -211 -186 -16 -48 -22 -153 -8 -153 4
   0 15 20 25 45 22 52 96 170 103 163 2 -3 -7 -25 -20 -49 -32 -58 -68 -150 -61
   -157 3 -3 28 5 56 18 87 41 129 108 129 205 0 23 9 58 20 80 27 52 30 49 -33
   34z"/>
   <path fill="#fff" class="logo" d="M1190 1435 c-41 -20 -90 -37 -107 -37 -28 0 -31 -2 -23 -18 14 -25
   81 -77 127 -97 58 -25 175 -23 240 6 49 22 125 86 78 66 -11 -5 -78 -10 -150
   -11 -109 -2 -120 -1 -70 7 167 25 196 31 192 42 -9 28 -99 71 -155 75 -49 3
   -67 -2 -132 -33z"/>
   <path fill="#fff" class="logo" d="M3482 1455 c-42 -19 -92 -54 -92 -65 0 -7 108 -29 215 -44 17 -2 -24
   -3 -90 -1 -66 1 -131 6 -145 10 -25 8 -25 8 -6 -13 11 -12 44 -34 75 -50 47
   -23 69 -27 136 -27 94 0 154 26 220 94 l39 41 -39 0 c-23 0 -65 13 -104 32
   -77 38 -158 47 -209 23z"/>
   <path fill="#fff" class="logo" d="M1500 1253 c-19 -10 -59 -38 -89 -61 -30 -24 -67 -46 -83 -49 -23 -5
   -26 -8 -16 -20 6 -8 35 -26 62 -40 73 -37 171 -42 248 -13 55 20 159 102 147
   114 -3 3 -26 -2 -50 -13 -41 -18 -105 -33 -191 -45 -21 -2 -38 -3 -38 -1 0 2
   33 13 73 25 88 27 167 60 167 70 0 14 -84 42 -140 47 -41 3 -64 0 -90 -14z"/>
   <path fill="#fff" class="logo" d="M3193 1249 c-29 -11 -53 -24 -53 -29 0 -8 66 -35 180 -75 l45 -15
   -55 4 c-31 2 -89 15 -130 29 -41 14 -77 24 -78 22 -9 -8 83 -86 125 -106 54
   -26 160 -36 218 -20 22 6 63 25 90 42 l50 32 -39 13 c-22 8 -62 32 -91 54 -96
   74 -164 87 -262 49z"/>
   <path fill="#fff" class="logo" d="M1795 1091 c-27 -16 -68 -52 -90 -80 -22 -28 -57 -60 -77 -70 l-38
   -19 51 -22 c107 -45 216 -34 315 32 43 30 114 116 114 140 0 5 -19 -4 -42 -20
   -24 -16 -56 -36 -73 -45 -29 -14 -152 -57 -164 -57 -3 0 31 20 76 43 45 24 98
   56 119 72 l38 29 -30 13 c-16 6 -56 12 -89 12 -48 1 -70 -5 -110 -28z"/>
   <path fill="#fff" class="logo" d="M2883 1109 c-18 -5 -33 -12 -33 -14 0 -9 139 -96 185 -116 25 -11 45
   -22 45 -24 0 -18 -196 67 -259 112 l-23 17 20 -40 c26 -51 101 -120 160 -147
   68 -31 189 -30 255 2 l49 24 -29 12 c-15 7 -54 42 -86 78 -69 79 -122 107
   -198 106 -30 0 -69 -5 -86 -10z"/>
   </g>
</svg>
